<?xml version="1.0" standalone="no"?>
<!DOCTYPE svg PUBLIC "-//W3C//DTD SVG 1.1//EN" "http://www.w3.org/Graphics/SVG/1.1/DTD/svg11.dtd" >
<svg xmlns="http://www.w3.org/2000/svg">
<metadata>Generated by IcoMoon</metadata>
<defs>
<font id="icomoon" horiz-adv-x="1024">
<font-face units-per-em="1024" ascent="960" descent="-64" />
<missing-glyph horiz-adv-x="1024" />
<glyph unicode="&#x20;" horiz-adv-x="512" d="" />
<glyph unicode="&#xe620;" glyph-name="delete" d="M256 128c0-47.147 38.187-85.333 85.333-85.333h341.333c47.147 0 85.333 38.187 85.333 85.333v512h-512v-512zM810.667 768h-149.333l-42.667 42.667h-213.333l-42.667-42.667h-149.333v-85.333h597.333v85.333z" />
<glyph unicode="&#xe623;" glyph-name="done" d="M384 248.747l-177.92 177.92-60.373-60.373 238.293-238.293 512 512-60.373 60.373z" />
<glyph unicode="&#xe624;" glyph-name="done-all" d="M768 640l-60.373 60.373-270.507-270.72 60.373-60.373 270.507 270.72zM949.12 700.374l-451.84-451.627-177.92 177.92-60.373-60.373 238.293-238.293 512 512-60.16 60.373zM17.707 366.294l238.293-238.293 60.373 60.373-238.293 238.293-60.373-60.373z" />
<glyph unicode="&#xe635;" glyph-name="history3" d="M554.453 810.667c-212.267 0-383.787-171.947-383.787-384h-128l166.187-166.187 2.987-6.187 172.16 172.373h-128c0 164.907 133.76 298.667 298.667 298.667s298.667-133.76 298.667-298.667-133.76-298.667-298.667-298.667c-82.56 0-157.013 33.707-210.987 87.68l-60.373-60.373c69.333-69.547 165.12-112.64 271.147-112.64 212.267 0 384.213 171.947 384.213 384s-171.947 384-384.213 384zM512 597.334v-213.333l182.613-108.373 30.72 51.84-149.333 88.533v181.333h-64z" />
<glyph unicode="&#xe639;" glyph-name="info-outline" d="M469.333 213.334h85.333v256h-85.333v-256zM512 853.334c-235.733 0-426.667-190.933-426.667-426.667s190.933-426.667 426.667-426.667 426.667 190.933 426.667 426.667-190.933 426.667-426.667 426.667zM512 85.334c-188.16 0-341.333 153.173-341.333 341.333s153.173 341.333 341.333 341.333 341.333-153.173 341.333-341.333-153.173-341.333-341.333-341.333zM469.333 554.667h85.333v85.333h-85.333v-85.333z" />
<glyph unicode="&#xe67f;" glyph-name="swap-vert-circle" d="M512 853.334c-235.733 0-426.667-190.933-426.667-426.667s190.933-426.667 426.667-426.667 426.667 190.933 426.667 426.667-190.933 426.667-426.667 426.667zM277.333 554.667l149.333 149.333 149.333-149.333h-106.667v-170.667h-85.333v170.667h-106.667zM746.667 298.667l-149.333-149.333-149.333 149.333h106.667v170.667h85.333v-170.667h106.667z" />
<glyph unicode="&#xe68d;" glyph-name="trending-up" d="M682.667 682.667l97.92-97.92-208.213-208-170.667 170.667-316.373-316.373 60.373-60.373 256 256 170.667-170.667 268.373 268.587 97.92-97.92v256z" />
<glyph unicode="&#xe69c;" glyph-name="visibility" d="M512 746.667c-213.333 0-395.52-132.693-469.333-320 73.813-187.307 256-320 469.333-320 213.547 0 395.52 132.693 469.333 320-73.813 187.307-255.787 320-469.333 320zM512 213.334c-117.76 0-213.333 95.573-213.333 213.333s95.573 213.333 213.333 213.333 213.333-95.573 213.333-213.333-95.573-213.333-213.333-213.333zM512 554.667c-70.613 0-128-57.387-128-128s57.387-128 128-128 128 57.387 128 128-57.387 128-128 128z" />
<glyph unicode="&#xe6a3;" glyph-name="warning4" d="M42.667 42.667h938.667l-469.333 810.667-469.333-810.667zM554.667 170.667h-85.333v85.333h85.333v-85.333zM554.667 341.334h-85.333v170.667h85.333v-170.667z" />
<glyph unicode="&#xe6bb;" glyph-name="play-arrow" d="M341.333 725.334v-597.333l469.333 298.667z" />
<glyph unicode="&#xe6df;" glyph-name="clear-all" d="M213.333 384h597.333v85.333h-597.333v-85.333zM128 213.334h597.333v85.333h-597.333v-85.333zM298.667 640v-85.333h597.333v85.333h-597.333z" />
<glyph unicode="&#xe6e0;" glyph-name="comment2" d="M938.24 768c0 47.147-37.76 85.333-84.907 85.333h-682.667c-47.147 0-85.333-38.187-85.333-85.333v-512c0-47.147 38.187-85.333 85.333-85.333h597.333l170.667-170.667-0.427 768zM768 341.334h-512v85.333h512v-85.333zM768 469.334h-512v85.333h512v-85.333zM768 597.334h-512v85.333h512v-85.333z" />
<glyph unicode="&#xe6fd;" glyph-name="add" d="M810.667 384h-256v-256h-85.333v256h-256v85.333h256v256h85.333v-256h256v-85.333z" />
<glyph unicode="&#xe704;" glyph-name="clear" d="M810.667 664.96l-60.373 60.373-238.293-238.293-238.293 238.293-60.373-60.373 238.293-238.293-238.293-238.293 60.373-60.373 238.293 238.293 238.293-238.293 60.373 60.373-238.293 238.293z" />
<glyph unicode="&#xe705;" glyph-name="content-copy" d="M682.667 896h-512c-47.147 0-85.333-38.187-85.333-85.333v-597.333h85.333v597.333h512v85.333zM810.667 725.334h-469.333c-47.147 0-85.333-38.187-85.333-85.333v-597.333c0-47.147 38.187-85.333 85.333-85.333h469.333c47.147 0 85.333 38.187 85.333 85.333v597.333c0 47.147-38.187 85.333-85.333 85.333zM810.667 42.667h-469.333v597.333h469.333v-597.333z" />
<glyph unicode="&#xe70a;" glyph-name="filter-list" d="M426.667 170.667h170.667v85.333h-170.667v-85.333zM128 682.667v-85.333h768v85.333h-768zM256 384h512v85.333h-512v-85.333z" />
<glyph unicode="&#xe70b;" glyph-name="flag10" d="M614.4 682.667l-17.067 85.333h-384v-725.333h85.333v298.667h238.933l17.067-85.333h298.667v426.667z" />
<glyph unicode="&#xe775;" glyph-name="attach-file" d="M704 682.667v-490.667c0-94.293-76.373-170.667-170.667-170.667s-170.667 76.373-170.667 170.667v533.333c0 58.88 47.787 106.667 106.667 106.667s106.667-47.787 106.667-106.667v-448c0-23.467-18.987-42.667-42.667-42.667s-42.667 19.2-42.667 42.667v405.333h-64v-405.333c0-58.88 47.787-106.667 106.667-106.667s106.667 47.787 106.667 106.667v448c0 94.293-76.373 170.667-170.667 170.667s-170.667-76.373-170.667-170.667v-533.333c0-129.707 105.173-234.667 234.667-234.667s234.667 104.96 234.667 234.667v490.667h-64z" />
<glyph unicode="&#xe776;" glyph-name="attach-money" d="M503.467 473.6c-96.853 25.173-128 50.987-128 91.52 0 46.507 42.88 79.147 115.2 79.147 75.947 0 104.107-36.267 106.667-89.6h94.293c-2.773 73.6-47.787 140.587-136.96 162.56v93.44h-128v-92.16c-82.773-18.133-149.333-71.467-149.333-154.027 0-98.56 81.707-147.627 200.533-176.213 106.88-25.6 128-62.933 128-103.040 0-29.227-20.693-76.16-115.2-76.16-87.893 0-122.667 39.467-127.147 89.6h-94.080c5.333-93.44 75.093-145.707 157.227-163.413v-92.587h128v91.733c82.987 16 149.333 64 149.333 151.68 0 120.747-103.68 162.133-200.533 187.52z" />
<glyph unicode="&#xe7a3;" glyph-name="mode-edit" d="M128 202.667v-160h160l472.107 472.107-160 160-472.107-472.107zM883.413 638.080c16.64 16.64 16.64 43.733 0 60.373l-99.627 99.627c-16.64 16.64-43.733 16.64-60.373 0l-78.080-78.080 160-160 78.080 78.080z" />
<glyph unicode="&#xe7a9;" glyph-name="attachment3" d="M320 170.667c-129.707 0-234.667 105.173-234.667 234.667s104.96 234.667 234.667 234.667h448c94.293 0 170.667-76.373 170.667-170.667s-76.373-170.667-170.667-170.667h-362.667c-58.88 0-106.667 47.787-106.667 106.667s47.787 106.667 106.667 106.667h320v-64h-320c-23.467 0-42.667-18.987-42.667-42.667s19.2-42.667 42.667-42.667h362.667c58.88 0 106.667 47.787 106.667 106.667s-47.787 106.667-106.667 106.667h-448c-94.293 0-170.667-76.373-170.667-170.667s76.373-170.667 170.667-170.667h405.333v-64h-405.333z" />
<glyph unicode="&#xe7b1;" glyph-name="file-download3" d="M810.667 554.667h-170.667v256h-256v-256h-170.667l298.667-298.667 298.667 298.667zM213.333 170.667v-85.333h597.333v85.333h-597.333z" />
<glyph unicode="&#xe7c3;" glyph-name="keyboard-arrow-right" d="M366.293 236.374l195.627 195.627-195.627 195.627 60.373 60.373 256-256-256-256z" />
<glyph unicode="&#xe806;" glyph-name="crop-square" d="M768 768h-512c-47.147 0-85.333-38.187-85.333-85.333v-512c0-47.147 38.187-85.333 85.333-85.333h512c47.147 0 85.333 38.187 85.333 85.333v512c0 47.147-38.187 85.333-85.333 85.333zM768 170.667h-512v512h512v-512z" />
<glyph unicode="&#xe809;" glyph-name="edit2" d="M128 202.667v-160h160l472.107 472.107-160 160-472.107-472.107zM883.413 638.080c16.64 16.64 16.64 43.733 0 60.373l-99.627 99.627c-16.64 16.64-43.733 16.64-60.373 0l-78.080-78.080 160-160 78.080 78.080z" />
<glyph unicode="&#xe831;" glyph-name="image8" d="M896 128v597.333c0 47.147-38.187 85.333-85.333 85.333h-597.333c-47.147 0-85.333-38.187-85.333-85.333v-597.333c0-47.147 38.187-85.333 85.333-85.333h597.333c47.147 0 85.333 38.187 85.333 85.333zM362.667 362.667l106.667-128.213 149.333 192.213 192-256h-597.333l149.333 192z" />
<glyph unicode="&#xe850;" glyph-name="remove-red-eye" d="M512 746.667c-213.333 0-395.52-132.693-469.333-320 73.813-187.307 256-320 469.333-320s395.52 132.693 469.333 320c-73.813 187.307-255.787 320-469.333 320zM512 213.334c-117.76 0-213.333 95.573-213.333 213.333s95.573 213.333 213.333 213.333 213.333-95.573 213.333-213.333-95.573-213.333-213.333-213.333zM512 554.667c-70.613 0-128-57.387-128-128s57.387-128 128-128 128 57.387 128 128-57.387 128-128 128z" />
<glyph unicode="&#xe8a3;" glyph-name="arrow-drop-up" d="M298.667 341.334l213.333 213.333 213.333-213.333z" />
<glyph unicode="&#xe8a6;" glyph-name="check2" d="M384 248.747l-177.92 177.92-60.373-60.373 238.293-238.293 512 512-60.373 60.373z" />
<glyph unicode="&#xe8a7;" glyph-name="chevron-left2" d="M657.707 622.294l-60.373 60.373-256-256 256-256 60.373 60.373-195.627 195.627z" />
<glyph unicode="&#xe8a8;" glyph-name="chevron-right2" d="M426.667 682.667l-60.373-60.373 195.627-195.627-195.627-195.627 60.373-60.373 256 256z" />
<glyph unicode="&#xe8a9;" glyph-name="close2" d="M810.667 664.96l-60.373 60.373-238.293-238.293-238.293 238.293-60.373-60.373 238.293-238.293-238.293-238.293 60.373-60.373 238.293 238.293 238.293-238.293 60.373 60.373-238.293 238.293z" />
<glyph unicode="&#xe8ab;" glyph-name="expand-more" d="M707.627 572.374l-195.627-195.627-195.627 195.627-60.373-60.373 256-256 256 256z" />
<glyph unicode="&#xe8b0;" glyph-name="more-vert" d="M512 597.334c47.147 0 85.333 38.187 85.333 85.333s-38.187 85.333-85.333 85.333-85.333-38.187-85.333-85.333 38.187-85.333 85.333-85.333zM512 512c-47.147 0-85.333-38.187-85.333-85.333s38.187-85.333 85.333-85.333 85.333 38.187 85.333 85.333-38.187 85.333-85.333 85.333zM512 256c-47.147 0-85.333-38.187-85.333-85.333s38.187-85.333 85.333-85.333 85.333 38.187 85.333 85.333-38.187 85.333-85.333 85.333z" />
<glyph unicode="&#xe8b1;" glyph-name="refresh2" d="M753.067 667.734c-61.653 61.867-146.773 100.267-241.067 100.267-188.587 0-340.907-152.747-340.907-341.333s152.32-341.333 340.907-341.333c158.933 0 292.053 108.8 329.813 256h-88.747c-35.2-99.413-129.493-170.667-241.067-170.667-141.44 0-256 114.56-256 256s114.56 256 256 256c70.613 0 133.973-29.44 180.267-75.733l-137.6-137.6h298.667v298.667l-100.267-100.267z" />
<glyph unicode="&#xe8e5;" glyph-name="person" d="M512 426.667c94.293 0 170.667 76.587 170.667 170.667 0 94.293-76.373 170.667-170.667 170.667s-170.667-76.373-170.667-170.667c0-94.080 76.373-170.667 170.667-170.667zM512 341.334c-113.707 0-341.333-56.96-341.333-170.667v-85.333h682.667v85.333c0 113.707-227.627 170.667-341.333 170.667z" />
<glyph unicode="&#xe900;" glyph-name="Special-time-slot" d="M889.873 498.039c-26.863 0-48.64-21.777-48.64-48.64s21.777-48.64 48.64-48.64 48.64 21.777 48.64 48.64-21.777 48.64-48.64 48.64zM645.393 495.377c-26.863 0-48.64-21.777-48.64-48.64s21.777-48.64 48.64-48.64 48.64 21.777 48.64 48.64-21.777 48.64-48.64 48.64zM958.583 578.987v0s-10.342 0.614-10.342 0.614l-32.631 80.759c-4.523 11.23-15.104 18.859-27.187 19.627l-50.022 3.226h-268.407c-5.171-0.393-9.165-4.676-9.182-9.865l-14.199-208.111c-0.017-0.171-0.034-0.341-0.051-0.512-0.478-5.598 3.669-10.53 9.267-11.008l26.351 0.546c0.171 2.628 0.051 5.291 0.393 7.953 3.703 28.638 32.154 50.654 60.433 50.654s58.641-16.913 64.461-50.688c0.444-2.662 0.051-5.257 0.137-7.885l120.986-1.792c0.119 2.953 0.324 5.239 0.41 8.055 0.922 28.262 28.058 53.914 62.788 51.746 32.393-2.014 58.795-22.443 58.795-50.705 0-2.543-0.085-5.205-0.444-7.646l16.179 0.034c4.557 0.085 8.277 3.721 8.465 8.294l5.939 91.767c0.717 12.971-9.165 24.115-22.135 24.934zM903.885 583.492h-0.017l-76.578 5.53-0.068 63.915 45.568-3.294c7.151-0.922 13.056-6.025 15.002-12.971l17.254-51.081c0.358-1.024-0.256-2.099-1.161-2.099zM180.873 286.908h-115.814c-7.817 0-14.148-6.332-14.148-14.148s6.332-14.131 14.148-14.131h115.814c7.817 0 14.148 6.332 14.148 14.131s-6.332 14.148-14.148 14.148zM295.083 230.332h-81.391c-7.799 0-14.131-6.332-14.131-14.131s6.332-14.148 14.131-14.148h98.304c-6.724 8.755-12.39 18.244-16.913 28.279zM282.692 286.874h-53.214c-7.817 0-14.131-6.332-14.131-14.131s6.315-14.131 14.131-14.131h56.286c-1.963 9.301-3.004 18.756-3.072 28.262zM187.631 343.433c-7.799 0-14.131-6.332-14.131-14.131s6.332-14.131 14.131-14.131h97.69c1.86 9.694 4.745 19.166 8.602 28.262h-106.291zM135.543 399.974c-7.799 0-14.131-6.332-14.131-14.131s6.332-14.131 14.131-14.131h174.404c7.765 10.633 16.964 20.139 27.341 28.262h-201.745zM983.108 385.809v0.051s-419.84 0-419.84 0c-8.346 11.622-18.108 22.135-29.065 31.3l-18.534 13.483c-20.599 12.954-43.759 21.299-67.891 24.457l-46.729 1.434h-128.273c-7.817 0-14.148-6.332-14.148-14.148s6.332-14.148 14.148-14.148h128.29c8.073 1.399 16.247 2.099 24.439 2.099 30.805 0.085 60.791-9.83 85.487-28.228 63.061-47.002 76.066-136.209 29.082-199.27-47.002-63.061-136.226-76.083-199.27-29.082h-59.921c-7.799 0-14.148-6.332-14.148-14.148s6.349-14.148 14.148-14.148h54.886c74.786-46.609 172.8-28.177 225.553 42.411h321.809c25.173-0.017 48.538 13.073 61.645 34.56l67.789 111.326c3.277 5.393 5.001 11.588 4.966 17.903-0.068 18.944-15.479 34.236-34.423 34.15zM230.161 456.55h-48.009c-7.817 0-14.131-6.332-14.131-14.148s6.315-14.131 14.131-14.131h48.026c7.817-0.017 14.165 6.315 14.165 14.131s-6.366 14.148-14.182 14.148zM235.81 173.807h-131.328c-7.799 0-14.131-6.332-14.131-14.131s6.332-14.131 14.131-14.131h131.277c7.834-0.017 14.182 6.315 14.199 14.131-0.017 7.817-6.349 14.131-14.148 14.131zM60.74 173.807h-4.71c-7.817 0-14.148-6.332-14.148-14.131s6.332-14.131 14.148-14.131h4.71c7.834-0.017 14.182 6.315 14.199 14.131-0.017 7.817-6.366 14.148-14.199 14.131zM20.702 286.908h-0.119c-7.851-0.034-14.165-6.417-14.131-14.268 0.034-7.834 6.417-14.165 14.268-14.131s14.165 6.434 14.131 14.268c0 7.817-6.349 14.131-14.148 14.131zM163.021 230.383h-42.564c-7.799 0-14.131-6.332-14.131-14.148s6.332-14.148 14.131-14.148h42.564c7.817 0 14.148 6.332 14.148 14.148s-6.332 14.148-14.148 14.148zM83.797 400.009h-23.074c-7.817 0-14.131-6.315-14.131-14.131s6.315-14.131 14.131-14.131h23.074c7.817-0.017 14.182 6.315 14.199 14.131 0 7.817-6.383 14.148-14.199 14.131zM152.405 329.301c-0.034 7.834-6.383 14.148-14.217 14.148h-33.707c-7.799 0-14.131-6.332-14.131-14.148s6.332-14.131 14.131-14.131h33.741c7.817-0.017 14.165 6.315 14.199 14.131h-0.017zM541.15 338.261c-0.273 0.495-0.905 0.666-1.417 0.393l-115.593-46.182c-3.106 1.041-7.458 2.441-10.684 1.946-7.578-1.058-13.756-6.502-15.667-13.807-0.239-1.109-0.358-2.253-0.375-3.396-0.154-10.172 8.090-18.517 18.398-18.671 8.841-0.461 17.51 4.437 17.51 15.206l107.486 63.044-0.068 0.068c0.512 0.273 0.683 0.905 0.41 1.399zM420.966 414.089l2.116-109.585 113.698 46.985c-22.221 38.571-82.756 70.281-115.814 62.601z" />
<glyph unicode="&#xe901;" glyph-name="Cargomove" horiz-adv-x="1026" d="M513.939-64c-290.263 0.646-513.939 224.323-513.939 513.939 0 284.444 226.263 510.061 511.354 510.061 283.798 0 515.879-231.434 514.586-512.646-1.939-283.798-228.848-510.707-512-510.707zM522.99 204.283c34.909 2.586 65.293 3.879 95.030 7.758 165.495 22.626 298.667 102.788 316.121 295.434 19.394 213.98-93.091 359.434-276.040 405.333-204.283 51.071-376.889-13.576-516.525-160.323-118.949-125.414-117.657-281.859-77.576-440.242 3.879 25.212 3.232 51.071 3.879 76.283 7.758 170.020 84.687 295.434 242.424 363.96 54.949 23.919 193.939 53.010 198.465 58.182s11.636 71.758 14.222 103.434c93.737-84.040 182.303-163.556 272.162-244.364-91.798-82.101-179.717-161.616-275.394-246.949v159.030c-87.273-96.97-168.081-186.828-250.182-277.98 84.040-86.626 164.848-170.667 252.121-261.172v162.263z" />
<glyph unicode="&#xe902;" glyph-name="removed" horiz-adv-x="1026" d="M54.303 124.768v782.222h762.182v-308.364l1.939-1.293h3.232c6.465-3.232 13.576-5.818 20.040-9.051s12.929-5.818 19.394-9.051v373.010h-852.040v-872.727h381.414l1.293-1.293 1.293-1.939c-4.525 7.758-8.404 15.515-12.283 23.273s-7.758 16.162-10.99 25.212h-315.475zM729.859 664.566h-585.051v45.253h581.172l3.232-45.253zM515.232 563.717l-1.939-1.293h-1.293c-9.051-6.465-18.101-13.576-26.505-20.687s-16.808-14.869-25.212-23.273h-315.475v45.253h370.424zM144.808 418.263h237.253v1.939l1.293 1.293c-3.879-7.758-7.111-15.515-10.99-23.273s-6.465-16.162-9.697-25.212h-217.859v45.253zM991.677 382.061c-16.808 37.495-38.788 70.465-67.879 99.556s-62.061 51.071-100.202 67.879c-37.495 16.808-78.222 24.566-122.182 24.566s-84.687-8.404-122.828-24.566c-37.495-16.808-70.465-38.788-99.556-67.879s-51.071-61.414-67.879-99.556c-16.808-38.141-24.566-79.515-24.566-122.828s8.404-84.687 24.566-122.828c16.808-37.495 38.788-70.465 67.879-99.556s61.414-51.071 99.556-67.879c38.141-16.808 79.515-24.566 122.828-24.566s84.040 8.404 122.182 24.566c38.141 16.808 71.758 38.788 100.202 67.879s51.071 61.414 67.879 99.556c16.808 38.141 24.566 79.515 24.566 122.828s-8.404 84.687-24.566 122.828zM970.99 259.232c0-37.495-7.111-72.404-20.687-104.727s-33.616-60.768-58.182-85.98-52.364-43.313-85.333-57.535-67.879-21.333-105.374-21.333-72.404 7.111-104.727 21.333c-32.97 14.222-62.061 33.616-86.626 58.182s-43.313 53.010-56.889 85.333c-14.222 32.97-21.333 67.879-21.333 104.727s7.111 72.404 21.333 104.727c13.576 32.97 32.323 62.061 56.889 86.626s53.010 43.313 86.626 56.889c32.323 14.222 67.232 21.333 104.727 21.333s71.758-7.111 104.727-21.333c32.323-13.576 60.768-32.323 85.333-56.889s43.96-53.010 58.182-86.626c14.222-32.323 21.333-67.232 21.333-104.727zM743.434 259.232l131.879-131.879-40.727-40.727-131.879 131.879-131.879-131.879-40.727 40.727 131.879 131.879-131.879 131.879 40.727 40.727 131.879-131.879 131.232 131.879 40.727-40.727-131.232-131.879z" />
<glyph unicode="&#xe903;" glyph-name="modified" d="M779.52 154.88c-24.32 24.96-48 48-71.68 72.32-8.96 8.96-18.56 14.080-31.36 8.96s-16-16-15.36-28.8c0-66.56 0-133.12 0-199.68 0-25.6 8.32-33.92 33.28-33.92 65.92 0 131.84 0 197.12 0 4.48 0 9.6 0 14.080 1.28 17.92 4.48 24.96 23.68 13.44 38.4-3.2 3.84-7.040 7.68-10.24 10.88-19.84 19.2-39.68 38.4-60.16 58.24 5.76 5.12 9.6 7.68 12.8 10.88 113.28 115.2 164.48 254.080 144 414.72-23.040 178.56-119.68 308.48-280.32 388.48-32.64 16-68.48 26.88-104.32 35.84-35.84 8.32-65.92-24.96-56.96-60.16 5.76-23.68 23.68-33.92 46.080-39.68 230.4-58.24 358.4-300.8 275.84-524.16-21.76-59.52-57.6-110.72-105.6-154.88zM173.44 810.88c-4.48-3.84-7.68-6.4-11.52-9.6-113.28-115.2-164.48-254.080-143.36-414.72 23.040-179.84 120.96-310.4 283.52-389.76 30.080-14.72 62.72-24.32 95.36-33.28 39.040-10.88 72.96 22.4 62.72 60.16-6.4 23.040-23.68 32.64-45.44 38.4-263.68 67.2-384 367.36-238.72 597.76 19.2 30.080 41.6 56.96 68.48 81.28 24.96-24.96 49.28-49.28 72.96-73.6 8.32-8.32 17.92-12.16 29.44-7.68s16 14.080 16 26.24c0 69.12 0 137.6 0 206.72 0 19.2-9.6 28.8-28.8 28.8-69.12 0-137.6 0-206.72 0-11.52 0-21.12-3.84-26.24-15.36s0-21.12 7.68-29.44c18.56-18.56 37.12-37.76 55.68-56.32 2.56-2.56 5.12-5.76 8.96-9.6zM442.24 357.76c-5.76 6.4-8.96 10.24-12.8 14.080-30.72 30.72-61.44 62.080-92.8 92.16-21.76 21.12-51.84 21.12-71.68 0.64s-19.2-49.92 2.56-71.68c44.16-44.16 88.32-88.96 133.12-133.12 27.52-27.52 54.4-27.52 81.92 0 69.12 69.12 138.24 138.24 207.36 207.36 22.4 22.4 45.44 44.8 67.84 67.84 12.16 12.16 17.92 26.24 15.36 43.52-3.2 19.84-15.36 33.92-34.56 40.32-19.84 6.4-37.12 0.64-51.2-13.44-58.24-58.24-88.32-87.040-116.48-116.48-45.44-47.36-60.16-53.12-111.36-112-7.040-8.32-12.8-14.72-16.64-19.2z" />
<glyph unicode="&#xe97b;" glyph-name="new" d="M896 768h-768c-70.4 0-128-57.6-128-128v-448c0-70.4 57.6-128 128-128h768c70.398 0 128 57.6 128 128v448c0 70.4-57.602 128-128 128zM320 256h-64l-128 213.334v-213.334h-64v320h64l128-213.334v213.334h64v-320zM576 512h-128v-64h128v-64h-128v-64h128v-63.998l-192-0.002v320h192v-64zM960 256h-95.998l-64.002 128-64-128h-96v320h64v-256l64 128h64.002l63.998-127.996v255.996h64v-320z" />
<glyph unicode="&#xe99e;" glyph-name="file-empty2" d="M704 704h232.118c-5.008 8.070-11.036 17-18.312 26.924-22.21 30.292-53.174 65.7-87.178 99.704s-69.412 64.964-99.704 87.178c-9.924 7.276-18.854 13.304-26.924 18.312v-232.118zM640 672v288h-496c-44.112 0-80-35.888-80-80v-864c0-44.112 35.886-80 80-80h736c44.112 0 80 35.888 80 80v624h-288c-17.674 0-32 14.328-32 32z" />
<glyph unicode="&#xe9ab;" glyph-name="file-eye" d="M1020.806 268.35c-29.792 71.224-81.096 131.964-148.36 175.654-68.486 44.484-148.864 67.996-232.446 67.996s-163.96-23.512-232.45-67.996c-67.264-43.69-118.564-104.43-148.36-175.654-3.304-7.9-3.304-16.794 0-24.7 29.792-71.224 81.094-131.964 148.36-175.654 68.49-44.484 148.87-67.996 232.45-67.996 83.582 0 163.958 23.514 232.448 67.996 67.264 43.69 118.566 104.43 148.36 175.654 3.304 7.9 3.304 16.8-0.002 24.7zM640 320c0-35.346-28.654-64-64-64s-64 28.654-64 64 28.654 64 64 64 64-28.654 64-64zM837.588 121.668c-58.086-37.726-126.41-57.668-197.588-57.668s-139.5 19.942-197.586 57.668c-52.472 34.082-93.282 80.328-118.694 134.332 25.412 54.004 66.22 100.25 118.694 134.332 6.51 4.228 13.156 8.218 19.914 12-12.746-25.906-19.914-55.046-19.914-85.872 0-107.582 87.21-194.792 194.792-194.792s194.794 87.21 194.794 194.792c0 32.5-7.97 63.134-22.046 90.074 9.438-4.97 18.66-10.376 27.634-16.206 52.468-34.082 93.28-80.328 118.692-134.332-25.412-54-66.222-100.246-118.692-134.328v0zM917.806 730.924c-22.212 30.292-53.174 65.7-87.178 99.704s-69.412 64.964-99.704 87.178c-51.574 37.82-76.592 42.194-90.924 42.194h-496c-44.112 0-80-35.888-80-80v-864c0-44.112 35.888-80 80-80h336c17.674 0 32 14.326 32 32s-14.326 32-32 32h-336c-8.672 0-16 7.328-16 16v864c0 8.672 7.328 16 16 16 0 0 495.956 0.002 496 0v-224c0-17.672 14.326-32 32-32h224v-160c0-17.674 14.326-32 32-32s32 14.326 32 32v160c0 14.332-4.372 39.35-42.194 90.924zM704 704v153.946c22.984-17.78 50.678-41.878 81.374-72.574 30.7-30.7 54.8-58.398 72.58-81.374h-153.954z" />
<glyph unicode="&#xe9ac;" glyph-name="file-eye2" d="M704 704h232.118c-5.008 8.070-11.038 17-18.312 26.924-22.208 30.292-53.174 65.7-87.178 99.704s-69.412 64.964-99.704 87.178c-9.924 7.276-18.856 13.304-26.924 18.312v-232.118zM368.332-56.384c-79.454 51.604-140.162 123.618-175.564 208.25-10.668 25.518-10.666 54.77 0 80.268 35.41 84.638 96.118 156.65 175.564 208.252 80.19 52.084 174.132 79.614 271.668 79.614s191.476-27.53 271.664-79.616c16.994-11.038 33.122-23.016 48.336-35.844v235.46h-288c-17.676 0-32 14.328-32 32v288h-496c-44.112 0-80-35.888-80-80v-864c0-44.112 35.884-80 80-80h236.478c-4.080 2.482-8.134 5.010-12.146 7.616zM1020.806 204.35c-29.792 71.224-81.096 131.964-148.36 175.654-68.486 44.484-148.864 67.996-232.446 67.996s-163.96-23.512-232.452-67.996c-67.264-43.69-118.562-104.43-148.36-175.654-3.304-7.9-3.304-16.794 0-24.7 29.792-71.224 81.094-131.964 148.36-175.654 68.492-44.484 148.872-67.996 232.452-67.996 83.582 0 163.958 23.514 232.448 67.996 67.264 43.69 118.566 104.43 148.36 175.654 3.304 7.9 3.304 16.8-0.002 24.7zM640 256c0-35.346-28.654-64-64-64s-64 28.654-64 64 28.654 64 64 64 64-28.654 64-64zM837.588 57.668c-58.086-37.726-126.41-57.668-197.588-57.668s-139.5 19.942-197.586 57.668c-52.472 34.082-93.284 80.328-118.696 134.332 25.412 54.004 66.22 100.25 118.696 134.332 6.51 4.228 13.156 8.218 19.914 12-12.746-25.906-19.914-55.046-19.914-85.872 0-107.582 87.208-194.792 194.792-194.792s194.794 87.21 194.794 194.792c0 32.5-7.97 63.132-22.046 90.074 9.438-4.97 18.66-10.376 27.634-16.208 52.466-34.082 93.28-80.328 118.692-134.332-25.412-53.998-66.222-100.244-118.692-134.326v0 0z" />
<glyph unicode="&#xe9ae;" glyph-name="file-text3" d="M704 704h232.118c-5.008 8.070-11.038 17-18.312 26.924-22.208 30.292-53.174 65.7-87.178 99.704s-69.412 64.964-99.704 87.178c-9.924 7.276-18.856 13.304-26.924 18.312v-232.118zM672 640c-17.676 0-32 14.328-32 32v288h-496c-44.112 0-80-35.888-80-80v-864c0-44.112 35.884-80 80-80h736c44.112 0 80 35.888 80 80v624h-288zM736 128h-448c-17.672 0-32 14.326-32 32s14.328 32 32 32h448c17.674 0 32-14.326 32-32s-14.326-32-32-32zM736 256h-448c-17.672 0-32 14.326-32 32s14.328 32 32 32h448c17.674 0 32-14.326 32-32s-14.326-32-32-32zM736 384h-448c-17.672 0-32 14.326-32 32s14.328 32 32 32h448c17.674 0 32-14.326 32-32s-14.326-32-32-32z" />
<glyph unicode="&#xe9c7;" glyph-name="copy3" d="M640 704v256h-448l-192-192v-576h384v-256h640v768h-384zM192 869.49v-101.49h-101.49l101.49 101.49zM64 256v448h192v192h320v-192l-192-192v-256h-320zM576 613.49v-101.49h-101.49l101.49 101.49zM960 0h-512v448h192v192h320v-640z" />
<glyph unicode="&#xe9c8;" glyph-name="copy4" d="M832 704h-192v64l-192 192h-448v-768h384v-256h640v576l-192 192zM832 613.49l101.49-101.49h-101.49v101.49zM448 869.49l101.49-101.49h-101.49v101.49zM64 896h320v-192h192v-448h-512v640zM960 0h-512v192h192v448h128v-192h192v-448z" />
<glyph unicode="&#xea58;" glyph-name="bell2" d="M1024 128c-106.042 0-192 85.96-192 192v285.090c0 140.738-109.942 258.128-256 285.084v69.826h-128v-69.824c-146.064-26.958-256-144.346-256-285.084v-285.092c0-106.040-85.962-192-192-192v-64h429.598c-5.208-11.424-8.11-24.118-8.11-37.49 0-49.986 40.524-90.51 90.512-90.51 49.984 0 90.51 40.524 90.51 90.51 0 13.376-2.902 26.066-8.112 37.49h429.602v64z" />
<glyph unicode="&#xea59;" glyph-name="bell3" d="M1024 128c-106.042 0-192 85.96-192 192v285.090c0 140.738-109.942 258.128-256 285.084v69.826h-128v-69.824c-146.064-26.958-256-144.346-256-285.084v-285.092c0-106.040-85.962-192-192-192v-64h429.598c-5.208-11.424-8.11-24.118-8.11-37.49 0-49.986 40.524-90.51 90.512-90.51 49.984 0 90.51 40.524 90.51 90.51 0 13.376-2.9 26.066-8.112 37.49h429.602v64zM990.92 576c-16.714 0-30.786 12.98-31.9 29.9-7.526 114.362-58.112 220.42-142.44 298.638-12.958 12.018-13.718 32.264-1.7 45.222 12.020 12.956 32.266 13.716 45.222 1.7 96.366-89.384 154.174-210.614 162.78-341.358 1.16-17.634-12.196-32.872-29.83-34.032-0.714-0.048-1.428-0.070-2.132-0.070zM33.082 576c-0.708 0-1.416 0.022-2.132 0.070-17.636 1.16-30.99 16.398-29.83 34.032 8.606 130.75 66.416 251.982 162.778 341.36 12.96 12.018 33.206 11.254 45.224-1.702 12.018-12.958 11.256-33.204-1.702-45.222-84.326-78.214-134.912-184.272-142.44-298.64-1.112-16.92-15.186-29.898-31.898-29.898z" />
<glyph unicode="&#xea62;" glyph-name="calendar4" d="M832 768h-64v-128h-192v128h-192v-128h-192v128h-64c-35.2 0-64-28.8-64-64v-704c0-35.2 28.8-64 64-64h704c35.2 0 64 28.8 64 64v704c0 35.2-28.8 64-64 64zM256 0h-127.886c-0.040 0.034-0.082 0.076-0.114 0.116v127.884h128v-128zM256 192h-128v128h128v-128zM256 384h-128v128h128v-128zM448 0h-128v128h128v-128zM448 192h-128v128h128v-128zM448 384h-128v128h128v-128zM640 0h-128v128h128v-128zM640 192h-128v128h128v-128zM640 384h-128v128h128v-128zM832 0.116c-0.034-0.040-0.076-0.082-0.116-0.116h-127.884v128h128v-127.884zM832 192h-128v128h128v-128zM832 384h-128v128h128v-128zM320 832c0 17.672-14.328 32-32 32s-32-14.328-32-32v-128h64v128zM704 832c0 17.672-14.328 32-32 32s-32-14.328-32-32v-128h64v128z" />
<glyph unicode="&#xea64;" glyph-name="printer" d="M1018.626 497.75l-128 192c-5.934 8.902-15.926 14.25-26.626 14.25h-96v224c0 17.672-14.326 32-32 32h-448c-17.672 0-32-14.328-32-32v-224h-96c-10.7 0-20.69-5.348-26.626-14.25l-128-192c-3.504-5.256-5.374-11.432-5.374-17.75v-320c0-17.674 14.328-32 32-32h147.602l-49.96-149.88c-3.252-9.758-1.618-20.484 4.398-28.83 6.016-8.344 15.674-13.29 25.96-13.29h704c10.288 0 19.946 4.946 25.958 13.29 6.016 8.346 7.652 19.072 4.398 28.83l-49.96 149.88h147.604c17.674 0 32 14.326 32 32v320c0 6.318-1.868 12.494-5.374 17.75zM320 896h384v-256h-384v256zM204.398 0l106.666 320h401.872l106.666-320h-615.204zM960 192h-136.936l-56.708 170.12c-4.354 13.066-16.582 21.88-30.356 21.88h-448c-13.774 0-26.002-8.814-30.358-21.88l-56.704-170.12h-136.938v278.312l113.126 169.688h78.874v-32c0-17.672 14.328-32 32-32h448c17.674 0 32 14.328 32 32v32h78.876l113.124-169.688v-278.312zM608 256h-192c-17.672 0-32-14.326-32-32s14.328-32 32-32h192c17.674 0 32 14.326 32 32s-14.326 32-32 32zM672 128h-320c-17.672 0-32-14.326-32-32s14.328-32 32-32h320c17.674 0 32 14.326 32 32s-14.326 32-32 32z" />
<glyph unicode="&#xea65;" glyph-name="Printer2" d="M608 256h-192c-17.672 0-32-14.326-32-32s14.328-32 32-32h192c17.674 0 32 14.326 32 32s-14.326 32-32 32zM672 128h-320c-17.672 0-32-14.326-32-32s14.328-32 32-32h320c17.674 0 32 14.326 32 32s-14.326 32-32 32zM1018.626 497.75l-128 192c-5.934 8.902-15.926 14.25-26.626 14.25h-96v224c0 17.672-14.326 32-32 32h-448c-17.672 0-32-14.328-32-32v-224h-96c-10.7 0-20.69-5.348-26.626-14.25l-128-192c-3.504-5.256-5.374-11.432-5.374-17.75v-320c0-17.674 14.328-32 32-32h147.602l-49.96-149.88c-3.252-9.758-1.618-20.484 4.398-28.83 6.016-8.344 15.674-13.29 25.96-13.29h704c10.288 0 19.946 4.946 25.958 13.29 6.016 8.346 7.652 19.072 4.398 28.83l-49.96 149.88h147.604c17.674 0 32 14.326 32 32v320c0 6.318-1.868 12.494-5.374 17.75zM320 896h384v-256h-384v256zM204.398 0l106.666 320h401.872l106.666-320h-615.204z" />
<glyph unicode="&#xea90;" glyph-name="database5" d="M512 960c-282.77 0-512-71.634-512-160v-128c0-88.366 229.23-160 512-160s512 71.634 512 160v128c0 88.366-229.23 160-512 160zM512 416c-282.77 0-512 71.634-512 160v-192c0-88.366 229.23-160 512-160s512 71.634 512 160v192c0-88.366-229.23-160-512-160zM512 128c-282.77 0-512 71.634-512 160v-192c0-88.366 229.23-160 512-160s512 71.634 512 160v192c0-88.366-229.23-160-512-160z" />
<glyph unicode="&#xeb05;" glyph-name="user3" d="M256 640c0 141.385 114.615 256 256 256s256-114.615 256-256c0-141.385-114.615-256-256-256s-256 114.615-256 256zM768 320h-512c-141.384 0-256-114.618-256-256v-64h1024v64c0 141.382-114.616 256-256 256z" />
<glyph unicode="&#xeb1d;" glyph-name="hour-glass2" d="M693.656 331.24c-74.802 48.688-117.656 76.002-117.656 116.76 0 40.756 42.854 68.072 117.652 116.758 120.458 75.684 202.348 224.29 202.348 395.242h-768c0-170.952 81.89-319.558 202.348-395.242 74.798-48.686 117.652-76.002 117.652-116.758 0-40.758-42.854-68.072-117.658-116.76-120.454-75.686-202.342-224.29-202.342-395.24h768c0 170.95-81.886 319.554-202.344 395.24zM259.63 766.18c-17.552 33.584-30.31 70.22-37.936 108.488h580.612c-7.626-38.268-20.382-74.904-37.938-108.488-11.786-22.552-25.534-43.388-40.932-62.18h-422.874c-15.398 18.792-29.146 39.628-40.932 62.18zM496 194.38c0-43.56-176-109.046-176-173.046h-98.306c7.626 38.266 20.382 74.9 37.934 108.484 28.616 54.752 68.766 99.418 116.114 129.166l0.578 0.364 0.572 0.374 3.088 2.010c46.71 30.398 88.058 57.322 116.020 89.532v-156.884zM802.308 21.334h-98.308c0 64-176 129.486-176 173.046v156.88c27.96-32.208 69.308-59.132 116.020-89.532l3.66-2.384 0.578-0.364c47.348-29.748 87.498-74.414 116.114-129.166 17.552-33.58 30.31-70.214 37.936-108.48z" />
<glyph unicode="&#xeb84;" glyph-name="stats-dots" d="M128 64h896v-128h-1024v1024h128zM288 128c-53.020 0-96 42.98-96 96s42.98 96 96 96c2.828 0 5.622-0.148 8.388-0.386l103.192 171.986c-9.84 15.070-15.58 33.062-15.58 52.402 0 53.020 42.98 96 96 96s96-42.98 96-96c0-19.342-5.74-37.332-15.58-52.402l103.192-171.986c2.766 0.238 5.56 0.386 8.388 0.386 2.136 0 4.248-0.094 6.35-0.23l170.356 298.122c-10.536 15.408-16.706 34.036-16.706 54.11 0 53.020 42.98 96 96 96s96-42.98 96-96c0-53.020-42.98-96-96-96-2.14 0-4.248 0.094-6.35 0.232l-170.356-298.124c10.536-15.406 16.706-34.036 16.706-54.11 0-53.020-42.98-96-96-96s-96 42.98-96 96c0 19.34 5.74 37.332 15.578 52.402l-103.19 171.984c-2.766-0.238-5.56-0.386-8.388-0.386s-5.622 0.146-8.388 0.386l-103.192-171.986c9.84-15.068 15.58-33.060 15.58-52.4 0-53.020-42.98-96-96-96z" />
<glyph unicode="&#xec15;" glyph-name="cube5" d="M480 896l-480-192v-448l480-256 480 256v448l-480 192zM448 89.6l-384 204.8v311.466l384-204.8v-311.466zM82.996 668.268l397.004 158.802 397.004-158.802-397.004-211.734-397.004 211.734z" />
<glyph unicode="&#xec81;" glyph-name="upload4" d="M896 256v-128h-768v128h-128v-256h1024v256zM256 512h192v-320h128v320h192l-256 384z" />
<glyph unicode="&#xec96;" glyph-name="link6" d="M440.236 324.234c-13.31 0-26.616 5.076-36.77 15.23-95.134 95.136-95.134 249.934 0 345.070l192 192c46.088 46.086 107.36 71.466 172.534 71.466s126.448-25.38 172.536-71.464c95.132-95.136 95.132-249.934 0-345.070l-87.766-87.766c-20.308-20.308-53.23-20.308-73.54 0-20.306 20.306-20.306 53.232 0 73.54l87.766 87.766c54.584 54.586 54.584 143.404 0 197.99-26.442 26.442-61.6 41.004-98.996 41.004s-72.552-14.562-98.996-41.006l-192-191.998c-54.586-54.586-54.586-143.406 0-197.992 20.308-20.306 20.306-53.232 0-73.54-10.15-10.152-23.462-15.23-36.768-15.23zM256-52c-65.176 0-126.45 25.38-172.534 71.464-95.134 95.136-95.134 249.934 0 345.070l87.764 87.764c20.308 20.306 53.234 20.306 73.54 0 20.308-20.306 20.308-53.232 0-73.54l-87.764-87.764c-54.586-54.586-54.586-143.406 0-197.992 26.44-26.44 61.598-41.002 98.994-41.002s72.552 14.562 98.998 41.006l192 191.998c54.584 54.586 54.584 143.406 0 197.992-20.308 20.308-20.306 53.232 0 73.54 20.306 20.306 53.232 20.306 73.54-0.002 95.132-95.134 95.132-249.932 0.002-345.068l-192.002-192c-46.090-46.088-107.364-71.466-172.538-71.466z" />
<glyph unicode="&#xec98;" glyph-name="link2" d="M320 256c17.6-17.6 47.274-16.726 65.942 1.942l316.118 316.116c18.668 18.668 19.54 48.342 1.94 65.942s-47.274 16.726-65.942-1.942l-316.116-316.116c-18.668-18.668-19.542-48.342-1.942-65.942zM476.888 284.888c4.56-9.050 6.99-19.16 6.99-29.696 0-17.616-6.744-34.060-18.992-46.308l-163.382-163.382c-12.248-12.248-28.694-18.992-46.308-18.992s-34.060 6.744-46.308 18.992l-99.382 99.382c-12.248 12.248-18.992 28.694-18.992 46.308s6.744 34.060 18.992 46.308l163.382 163.382c12.248 12.248 28.694 18.994 46.308 18.994 10.536 0 20.644-2.43 29.696-6.99l65.338 65.338c-27.87 21.41-61.44 32.16-95.034 32.16-39.986 0-79.972-15.166-110.308-45.502l-163.382-163.382c-60.67-60.67-60.67-159.948 0-220.618l99.382-99.382c30.334-30.332 70.32-45.5 110.306-45.5 39.988 0 79.974 15.168 110.308 45.502l163.382 163.382c55.82 55.82 60.238 144.298 13.344 205.344l-65.34-65.34zM978.498 815.116l-99.382 99.382c-30.334 30.336-70.32 45.502-110.308 45.502-39.986 0-79.972-15.166-110.308-45.502l-163.382-163.382c-55.82-55.82-60.238-144.298-13.342-205.342l65.338 65.34c-4.558 9.050-6.988 19.16-6.988 29.694 0 17.616 6.744 34.060 18.992 46.308l163.382 163.382c12.248 12.248 28.694 18.994 46.308 18.994s34.060-6.746 46.308-18.994l99.382-99.382c12.248-12.248 18.992-28.694 18.992-46.308s-6.744-34.060-18.992-46.308l-163.382-163.382c-12.248-12.248-28.694-18.992-46.308-18.992-10.536 0-20.644 2.43-29.696 6.99l-65.338-65.338c27.872-21.41 61.44-32.16 95.034-32.16 39.988 0 79.974 15.168 110.308 45.502l163.382 163.382c60.67 60.666 60.67 159.944 0 220.614z" />
<glyph unicode="&#xeca3;" glyph-name="flag3" d="M0 960h128v-1024h-128v1024zM640 896c-32 0-48 16-64 32s-32 32-64 32h-320v-640h320c32 0 48-16 64-32s32-32 64-32h320v640h-320z" />
<glyph unicode="&#xeca9;" glyph-name="attachment" d="M665.832 632.952l-64.952 64.922-324.81-324.742c-53.814-53.792-53.814-141.048 0-194.844 53.804-53.792 141.060-53.792 194.874 0l389.772 389.708c89.714 89.662 89.714 235.062 0 324.726-89.666 89.704-235.112 89.704-324.782 0l-409.23-409.178c-0.29-0.304-0.612-0.576-0.876-0.846-125.102-125.096-125.102-327.856 0-452.906 125.054-125.056 327.868-125.056 452.988 0 0.274 0.274 0.516 0.568 0.82 0.876l0.032-0.034 279.332 279.292-64.986 64.92-279.33-279.262c-0.296-0.268-0.564-0.57-0.846-0.844-89.074-89.058-233.98-89.058-323.076 0-89.062 89.042-89.062 233.922 0 322.978 0.304 0.304 0.604 0.582 0.888 0.846l-0.046 0.060 409.28 409.166c53.712 53.738 141.144 53.738 194.886 0 53.712-53.734 53.712-141.148 0-194.84l-389.772-389.7c-17.936-17.922-47.054-17.922-64.972 0-17.894 17.886-17.894 47.032 0 64.92l324.806 324.782z" />
<glyph unicode="&#xecab;" glyph-name="eye5" d="M512 768c-223.318 0-416.882-130.042-512-320 95.118-189.958 288.682-320 512-320 223.312 0 416.876 130.042 512 320-95.116 189.958-288.688 320-512 320zM764.45 598.296c60.162-38.374 111.142-89.774 149.434-150.296-38.292-60.522-89.274-111.922-149.436-150.296-75.594-48.218-162.89-73.704-252.448-73.704-89.56 0-176.858 25.486-252.452 73.704-60.158 38.372-111.138 89.772-149.432 150.296 38.292 60.524 89.274 111.924 149.434 150.296 3.918 2.5 7.876 4.922 11.86 7.3-9.96-27.328-15.41-56.822-15.41-87.596 0-141.382 114.616-256 256-256 141.382 0 256 114.618 256 256 0 30.774-5.452 60.268-15.408 87.598 3.978-2.378 7.938-4.802 11.858-7.302v0zM512 544c0-53.020-42.98-96-96-96s-96 42.98-96 96 42.98 96 96 96 96-42.982 96-96z" />
<glyph unicode="&#xecdd;" glyph-name="star-empty" d="M808.654-49.706c-6.578 0-13.156 2.024-18.754 6.072l-277.9 201.006-277.9-201.004c-11.228-8.124-26.408-8.092-37.606 0.070-11.198 8.166-15.868 22.61-11.568 35.784l106.056 325.026-277.736 200.92c-11.242 8.132-15.96 22.584-11.688 35.784 4.274 13.2 16.568 22.142 30.444 22.142l343.458 0.012 106.12 325.128c4.296 13.164 16.574 22.072 30.42 22.072s26.124-8.908 30.42-22.072l106.122-325.128 343.458-0.012c13.876 0 26.168-8.942 30.442-22.142 4.276-13.2-0.446-27.65-11.688-35.784l-277.734-200.922 106.056-325.026c4.298-13.174-0.372-27.618-11.568-35.784-5.618-4.092-12.234-6.142-18.854-6.142zM130.826 512.098l216.57-156.674c11.264-8.146 15.978-22.636 11.666-35.852l-82.788-253.716 216.974 156.936c11.192 8.096 26.316 8.098 37.508 0l216.972-156.934-82.788 253.714c-4.312 13.214 0.402 27.706 11.666 35.852l216.568 156.674-267.852 0.008c-13.846 0-26.122 8.908-30.418 22.070l-82.904 254-82.904-253.998c-4.296-13.164-16.572-22.070-30.42-22.070l-267.85-0.010z" />
<glyph unicode="&#xed36;" glyph-name="hand" d="M768-64h-320c-8.488 0-16.626 3.372-22.626 9.374l-192 192c-1.712 1.712-3.226 3.614-4.508 5.666l-160 256c-9.172 14.678-5.014 33.986 9.386 43.586l96 64c13.608 9.070 31.864 6.422 42.334-6.14l103.414-124.102v487.616c0 17.672 14.328 32 32 32h96v32c0 17.672 14.328 32 32 32h128c17.674 0 32-14.328 32-32v-32h96c17.674 0 32-14.328 32-32v-96h96c17.674 0 32-14.328 32-32v-576c0-4.968-1.156-9.868-3.378-14.31l-96-192c-5.42-10.842-16.5-17.69-28.622-17.69zM461.254 0h286.968l83.778 167.554v536.446h-64v-288c0-17.674-14.326-32-32-32s-32 14.326-32 32v416h-64v-416c0-17.674-14.326-32-32-32s-32 14.326-32 32v480h-64v-480c0-17.674-14.328-32-32-32s-32 14.326-32 32v416h-64v-544c0-13.472-8.438-25.502-21.106-30.088-12.666-4.596-26.85-0.746-35.476 9.602l-141.592 169.91-46.22-30.812 141.6-226.56 180.048-180.052z" />
<glyph unicode="&#xed4c;" glyph-name="warning3" d="M512 867.226l429.102-855.226h-858.206l429.104 855.226zM512 960c-22.070 0-44.14-14.882-60.884-44.648l-437.074-871.112c-33.486-59.532-5-108.24 63.304-108.24h869.308c68.3 0 96.792 48.708 63.3 108.24h0.002l-437.074 871.112c-16.742 29.766-38.812 44.648-60.882 44.648v0zM576 128c0-35.346-28.654-64-64-64s-64 28.654-64 64c0 35.346 28.654 64 64 64s64-28.654 64-64zM512 256c-35.346 0-64 28.654-64 64v192c0 35.346 28.654 64 64 64s64-28.654 64-64v-192c0-35.346-28.654-64-64-64z" />
<glyph unicode="&#xed4e;" glyph-name="notification" d="M512 864c-111.118 0-215.584-43.272-294.156-121.844s-121.844-183.038-121.844-294.156c0-111.118 43.272-215.584 121.844-294.156s183.038-121.844 294.156-121.844c111.118 0 215.584 43.272 294.156 121.844s121.844 183.038 121.844 294.156c0 111.118-43.272 215.584-121.844 294.156s-183.038 121.844-294.156 121.844zM512 960v0c282.77 0 512-229.23 512-512s-229.23-512-512-512c-282.77 0-512 229.23-512 512s229.23 512 512 512zM448 256h128v-128h-128zM448 768h128v-384h-128z" />
<glyph unicode="&#xed55;" glyph-name="question6" d="M512 128c-35.346 0-64 28.652-64 63.998v65.758c0 90.218 71.964 158.51 141.56 224.552 56.26 53.392 114.44 108.602 114.44 157.692 0 95.568-69.262 192-224 192-114.376 0-210.086-85.564-222.63-199.032-3.882-35.132-35.494-60.47-70.644-56.58-35.132 3.884-60.464 35.512-56.58 70.644 9.462 85.606 50.042 164.628 114.266 222.508 64.724 58.334 148.392 90.46 235.588 90.46 94.376 0 181.382-29.656 244.996-83.504 69.002-58.412 107.004-142.4 107.004-236.496 0-104.084-81.992-181.892-154.334-250.54-47.654-45.222-101.668-96.48-101.668-131.704l0.002-65.754c0-35.348-28.652-64.002-64-64.002zM576 0c0-35.346-28.654-64-64-64s-64 28.654-64 64c0 35.346 28.654 64 64 64s64-28.654 64-64z" />
<glyph unicode="&#xed5a;" glyph-name="plus3" d="M960 512h-384v384h-128v-384h-384v-128h384v-384h128v384h384z" />
<glyph unicode="&#xed60;" glyph-name="info3" d="M448 656c0 26.4 21.6 48 48 48h32c26.4 0 48-21.6 48-48v-32c0-26.4-21.6-48-48-48h-32c-26.4 0-48 21.6-48 48v32zM640 192h-256v64h64v192h-64v64h192v-256h64zM512 960c-282.77 0-512-229.23-512-512s229.23-512 512-512 512 229.23 512 512-229.23 512-512 512zM512 32c-229.75 0-416 186.25-416 416s186.25 416 416 416 416-186.25 416-416-186.25-416-416-416z" />
<glyph unicode="&#xed61;" glyph-name="info2" d="M512 960c-282.77 0-512-229.23-512-512s229.23-512 512-512 512 229.23 512 512-229.23 512-512 512zM448 720c0 26.4 21.6 48 48 48h32c26.4 0 48-21.6 48-48v-32c0-26.4-21.6-48-48-48h-32c-26.4 0-48 21.6-48 48v32zM640 128h-256v64h64v256h-64v64h192v-320h64v-64z" />
<glyph unicode="&#xed64;" glyph-name="blocked" d="M874.040 810.040c-96.706 96.702-225.28 149.96-362.040 149.96s-265.334-53.258-362.040-149.96c-96.702-96.706-149.96-225.28-149.96-362.040s53.258-265.334 149.96-362.040c96.706-96.702 225.28-149.96 362.040-149.96s265.334 53.258 362.040 149.96c96.702 96.706 149.96 225.28 149.96 362.040s-53.258 265.334-149.96 362.040zM896 448c0-82.814-26.354-159.588-71.112-222.38l-535.266 535.268c62.792 44.758 139.564 71.112 222.378 71.112 211.738 0 384-172.262 384-384zM128 448c0 82.814 26.354 159.586 71.112 222.378l535.27-535.268c-62.794-44.756-139.568-71.11-222.382-71.11-211.738 0-384 172.262-384 384z" />
<glyph unicode="&#xed67;" glyph-name="cancel" d="M736 960h-448l-288-288v-448l288-288h448l288 288v448l-288 288zM800 256l-96-96-192 192-192-192-96 96 192 192-192 192 96 96 192-192 192 192 96-96-192-192 192-192z" />
<glyph unicode="&#xed6a;" glyph-name="cross2" d="M893.254 738.746l-90.508 90.508-290.746-290.744-290.746 290.744-90.508-90.506 290.746-290.748-290.746-290.746 90.508-90.508 290.746 290.746 290.746-290.746 90.508 90.51-290.744 290.744z" />
<glyph unicode="&#xed6e;" glyph-name="checkmark3" d="M896 800l-544-544-224 224-96-96 320-320 640 640z" />
<glyph unicode="&#xed86;" glyph-name="forward3" d="M512 96v320l-320-320v704l320-320v320l352-352z" />
<glyph unicode="&#xedb8;" glyph-name="arrow-right17" d="M352 960l-192-192 320-320-320-320 192-192 512 512z" />
<glyph unicode="&#xeddf;" glyph-name="arrow-left8" d="M402.746 82.746l-320 320c-24.994 24.992-24.994 65.516 0 90.51l320 320c24.994 24.992 65.516 24.992 90.51 0 24.994-24.994 24.994-65.516 0-90.51l-210.746-210.746h613.49c35.346 0 64-28.654 64-64s-28.654-64-64-64h-613.49l210.746-210.746c12.496-12.496 18.744-28.876 18.744-45.254s-6.248-32.758-18.744-45.254c-24.994-24.994-65.516-24.994-90.51 0z" />
<glyph unicode="&#xee89;" glyph-name="filter4" d="M869.49 768l-293.49-293.49v-296.542l-128-32v328.542l-293.49 293.49h714.98M1024 832h-1024l384-384v-384l256 64v320l384 384z" />
<glyph unicode="&#xef39;" glyph-name="file-excel" d="M743.028 576h-135.292l-95.732-141.032-95.742 141.032h-135.29l162.162-242.464-182.972-269.536h251.838v91.576h-50.156l50.156 74.994 111.396-166.57h140.444l-182.976 269.536 162.164 242.464zM917.806 730.924c-22.21 30.292-53.174 65.7-87.178 99.704s-69.412 64.964-99.704 87.178c-51.574 37.82-76.592 42.194-90.924 42.194h-496c-44.112 0-80-35.888-80-80v-864c0-44.112 35.886-80 80-80h736c44.112 0 80 35.888 80 80v624c0 14.332-4.372 39.35-42.194 90.924v0zM785.374 785.374c30.7-30.7 54.8-58.398 72.58-81.374h-153.954v153.946c22.982-17.78 50.678-41.878 81.374-72.572v0zM896 16c0-8.672-7.328-16-16-16h-736c-8.672 0-16 7.328-16 16v864c0 8.672 7.328 16 16 16 0 0 495.956 0.002 496 0v-224c0-17.672 14.324-32 32-32h224v-624z" />
<glyph unicode="&#xef4e;" glyph-name="msc" horiz-adv-x="1161" d="M653.67 868.194c26.857 29.22 57.447 50.142 94.321 61.368 128.913 39.319 259.975-53.445 262.634-187.998 2.095-106.461 0.591-213.002 0.671-319.597v-18.343c45.415 0 86.13 11.387 126.227 31.664l23.554-42.729c-22.882-8.514-43.965-17.887-65.907-24.171-25.053-7.678-53.85-12.099-83.679-12.099-33.836 0-66.344 5.688-96.619 16.161l2.075-0.625c-39.48 12.972-78.825 26.32-121.313 25.944-33.564-0.591-65.436-7.102-94.854-18.528l1.876 0.641c-47.188-17.296-95.745-28.441-145.86-22.050-37.018 4.776-70.398 12.765-102.318 23.873l3.538-1.072c-61.261 21.029-121.581 22.506-182.627 1.209-48.88-17.027-98.511-29.247-151.016-24.628-42.673 3.333-82.030 14.373-117.745 31.736l1.938-0.85c-3.386 1.899-6.184 3.676-8.884 5.583l0.316-0.212 22.13 40.285c39.802-18.8 81.081-30.16 126.657-30.402v521.883h206.046v-46.194c44.636 41.36 94.697 61.637 152.762 59.327s106.031-25.971 146.075-70.177zM798.348 448.421c-0.618-1.316 0-0.537 0 0.242 0 88.493 0.806 176.987-0.242 265.454-0.376 30.993-32.228 54.358-62.845 49.658-29.757-4.566-48.53-26.857-48.638-59.407-0.295-89.809-0.134-179.646 0-269.482 0.139-2.648 0.504-5.131 1.077-7.534l-0.057 0.282zM473.38 427.5c0.283 0.432 0.453 0.961 0.457 1.53v0.001c0 94.375 0.51 188.777-0.242 283.179-0.242 30.402-28.227 53.58-58.817 51.646-31.476-2.014-52.586-25.944-52.693-61.099-0.269-81.887 0-163.827 0-245.606 0-3.545 0.483-7.063 0.591-8.702zM554.407 238.105c-2.686 41.843-24.386 72.057-58.521 94.16s-72.782 31.745-112.987 34.189c-55.782 3.384-108.958-5.371-155.77-38.352-39.48-27.77-57.93-66.229-54.063-114.357 3.599-45.657 32.739-72.943 71.574-89.38 32.228-13.643 66.766-22.264 100.284-33.088 16.544-5.371 33.679-9.346 49.47-16.356s16.839-24.52 4.485-35.183c-26.239-22.533-76.676-10.743-88.628 21.486-2.954 8.057-6.983 8.648-13.751 8.594-41.145-0.349-82.316-0.376-123.542-0.564-4.351 0-8.728-0.376-14.53-0.671 0.425-8.24 1.221-15.83 2.39-23.298l-0.161 1.248c6.281-29.7 22.146-54.964 44.144-73.034l0.223-0.178c62.013-52.452 133.909-66.954 212.411-52.478 46.274 8.54 88.44 26.159 119.728 63.221 48.745 57.769 39.131 139.898-23.366 181.982-21.486 14.395-46.838 24.171-71.708 31.664-32.389 9.883-66.068 15.496-99.156 23.097-11.656 2.686-21.486 7.762-21.324 21.781s9.158 20.384 21.486 23.93c32.067 9.292 55.809-3.491 68.593-37.17h142.127c0.342 2.616 0.537 5.642 0.537 8.713 0 0.015 0 0.030 0 0.045v-0.002zM1002.273 212.913c-15.899 71.278-54.546 122.924-127.436 142.879-19.294 5.214-41.85 8.927-65.020 10.371l-0.994 0.050c-99.747 7.278-183.648-49.497-213.754-143.846-13.428-41.682-14.852-84.25-8.567-127.329 13.428-92.012 79.55-161.679 169.601-177.068 35.666-6.070 71.359-3.33 106.595 4.512 83.767 18.666 136.379 81.081 143.362 178.572h-13.24c-41.172 0-82.316-0.403-123.542 0.269-11.334 0.188-16.114-3.089-19.364-14.261-3.376-11.187-8.914-20.84-16.175-28.913l0.061 0.069c-21.486-23.58-55.513-20.465-73.83 5.586-26.857 38.137-26.642 117.15 0.349 154.615 18.343 25.46 51.888 28.764 72.809 5.371 8.594-9.561 12.462-23.258 19.149-34.672 2.041-3.465 6.285-8.057 9.561-8.057 47.805-0.51 95.611-0.349 145.726-0.349-1.88 12.139-3.115 22.264-5.345 32.201z" />
<glyph unicode="&#xef6b;" glyph-name="portDischarge" horiz-adv-x="958" d="M871.784 707.459h44.973v-259.459h41.514v-114.162h-152.216v-41.514h48.432l103.784-238.703v-117.622h-41.514v51.892h-300.973v-51.892h-34.595l-3.459 117.622 110.703 238.703h58.811v41.514h-172.973l-100.324 321.73-204.108 197.189-204.108-100.324-65.73 13.838 352.865 193.73 86.486-62.27-131.459-27.676 467.027-401.297zM522.378 626.093l70.988-178.093h126.201zM847.568 246.383h-38.054v-188.471h110.703zM629.622 57.911h110.703v188.61h-38.054zM422.054 893.717l444.748-198.435 4.982 12.177-432.432 190.27zM267.762 511.931h3.736l-1.799 340.549-3.736-1.661zM304.432 486.608l2.214 3.044-34.733 25.6-2.214-3.044zM269.838 512.208l-2.214 3.044-34.595-25.738 2.214-3.044zM421.916 338.128h-283.537v152.908h283.537zM179.892 353.764v121.911c0 2.828-2.292 5.12-5.12 5.12v0h-7.472c-2.828 0-5.12-2.292-5.12-5.12v0-121.635c0-2.828 2.292-5.12 5.12-5.12v0h7.472c0.002 0 0.005 0 0.007 0 2.73 0 4.962 2.137 5.112 4.83l0.001 0.013zM207.568 353.764v121.911c0 2.828-2.292 5.12-5.12 5.12v0h-7.472c-2.828 0-5.12-2.292-5.12-5.12v0-121.635c0-2.828 2.292-5.12 5.12-5.12v0h7.472c0.002 0 0.005 0 0.007 0 2.73 0 4.962 2.137 5.112 4.83l0.001 0.013zM235.243 353.764v121.911c0 2.828-2.292 5.12-5.12 5.12v0h-7.472c-2.828 0-5.12-2.292-5.12-5.12v0-121.635c0-2.828 2.292-5.12 5.12-5.12v0h7.472c0.002 0 0.005 0 0.007 0 2.73 0 4.962 2.137 5.112 4.83l0.001 0.013zM262.919 353.764v121.911c0 2.828-2.292 5.12-5.12 5.12v0h-7.472c-2.828 0-5.12-2.292-5.12-5.12v0-121.635c0-2.828 2.292-5.12 5.12-5.12v0h7.472c0.002 0 0.005 0 0.007 0 2.73 0 4.962 2.137 5.112 4.83l0.001 0.013zM290.595 353.764v121.911c0 2.828-2.292 5.12-5.12 5.12v0h-7.472c-2.828 0-5.12-2.292-5.12-5.12v0-121.635c0-2.828 2.292-5.12 5.12-5.12v0h7.472c0.002 0 0.005 0 0.007 0 2.73 0 4.962 2.137 5.112 4.83l0.001 0.013zM318.27 353.764v121.911c0 2.828-2.292 5.12-5.12 5.12v0h-7.472c-2.828 0-5.12-2.292-5.12-5.12v0-121.635c0-2.828 2.292-5.12 5.12-5.12v0h7.472c0.002 0 0.005 0 0.007 0 2.73 0 4.962 2.137 5.112 4.83l0.001 0.013zM345.946 353.764v121.911c0 2.828-2.292 5.12-5.12 5.12v0h-7.472c-2.828 0-5.12-2.292-5.12-5.12v0-121.635c0-2.828 2.292-5.12 5.12-5.12v0h7.472c0.002 0 0.005 0 0.007 0 2.73 0 4.962 2.137 5.112 4.83l0.001 0.013zM373.622 353.764v121.911c0 2.828-2.292 5.12-5.12 5.12v0h-7.472c-2.828 0-5.12-2.292-5.12-5.12v0-121.635c0-2.828 2.292-5.12 5.12-5.12v0h7.472c0.002 0 0.005 0 0.007 0 2.73 0 4.962 2.137 5.112 4.83l0.001 0.013zM401.297 353.764v121.911c0 2.828-2.292 5.12-5.12 5.12v0h-7.472c-2.828 0-5.12-2.292-5.12-5.12v0-121.635c0-2.828 2.292-5.12 5.12-5.12v0h7.472c0.002 0 0.005 0 0.007 0 2.73 0 4.962 2.137 5.112 4.83l0.001 0.013zM427.174 99.978h-283.676v152.908h283.676zM185.427 115.892v121.358c0 2.828-2.292 5.12-5.12 5.12v0h-7.472c-2.828 0-5.12-2.292-5.12-5.12v0-121.358c0-2.828 2.292-5.12 5.12-5.12h7.057c0.124-0.011 0.269-0.017 0.415-0.017 2.828 0 5.12 2.292 5.12 5.12 0 0.006 0 0.012 0 0.018v-0.001zM213.103 115.892v121.358c0 2.828-2.292 5.12-5.12 5.12v0h-7.472c-2.828 0-5.12-2.292-5.12-5.12v0-121.358c0-2.828 2.292-5.12 5.12-5.12h7.057c0.124-0.011 0.269-0.017 0.415-0.017 2.828 0 5.12 2.292 5.12 5.12 0 0.006 0 0.012 0 0.018v-0.001zM240.778 115.892v121.358c0 2.828-2.292 5.12-5.12 5.12v0h-7.472c-2.828 0-5.12-2.292-5.12-5.12v0-121.358c0-2.828 2.292-5.12 5.12-5.12v0h7.057c0.124-0.011 0.269-0.017 0.415-0.017 2.828 0 5.12 2.292 5.12 5.12 0 0.006 0 0.012 0 0.018v-0.001zM268.454 115.892v121.358c0 2.828-2.292 5.12-5.12 5.12v0h-7.472c-2.828 0-5.12-2.292-5.12-5.12v0-121.358c0-2.828 2.292-5.12 5.12-5.12v0h7.057c0.166-0.019 0.359-0.030 0.554-0.030 2.828 0 5.12 2.292 5.12 5.12 0 0.011 0 0.021 0 0.032v-0.002zM296.13 115.892v121.358c0 2.828-2.292 5.12-5.12 5.12v0h-7.472c-2.828 0-5.12-2.292-5.12-5.12v0-121.358c0-2.828 2.292-5.12 5.12-5.12v0h7.057c0.166-0.019 0.359-0.030 0.554-0.030 2.828 0 5.12 2.292 5.12 5.12 0 0.011 0 0.021 0 0.032v-0.002zM323.805 115.892v121.358c0 2.828-2.292 5.12-5.12 5.12v0h-7.334c-2.828 0-5.12-2.292-5.12-5.12v0-121.358c0-2.828 2.292-5.12 5.12-5.12h6.919c0.166-0.019 0.359-0.030 0.554-0.030 2.828 0 5.12 2.292 5.12 5.12 0 0.011 0 0.021 0 0.032v-0.002zM351.481 115.892v121.358c0 2.828-2.292 5.12-5.12 5.12v0h-7.334c-2.828 0-5.12-2.292-5.12-5.12v0-121.358c0-2.828 2.292-5.12 5.12-5.12h6.919c0.166-0.019 0.359-0.030 0.554-0.030 2.828 0 5.12 2.292 5.12 5.12 0 0.011 0 0.021 0 0.032v-0.002zM379.157 115.892v121.358c0 2.828-2.292 5.12-5.12 5.12v0h-7.334c-2.828 0-5.12-2.292-5.12-5.12v0-121.358c0-2.828 2.292-5.12 5.12-5.12h6.919c0.166-0.019 0.359-0.030 0.554-0.030 2.828 0 5.12 2.292 5.12 5.12 0 0.011 0 0.021 0 0.032v-0.002zM406.832 115.892v121.358c0 2.828-2.292 5.12-5.12 5.12v0h-7.334c-2.828 0-5.12-2.292-5.12-5.12v0-121.358c0-2.828 2.292-5.12 5.12-5.12h6.919c0.166-0.019 0.359-0.030 0.554-0.030 2.828 0 5.12 2.292 5.12 5.12 0 0.011 0 0.021 0 0.032v-0.002zM427.174-57.358h-283.676v153.046h283.676zM185.427-41.721v121.773c0 2.828-2.292 5.12-5.12 5.12h-7.472c-2.828 0-5.12-2.292-5.12-5.12v0-121.635c0-2.828 2.292-5.12 5.12-5.12h7.057c0.125-0.011 0.27-0.017 0.417-0.017 2.785 0 5.051 2.224 5.118 4.992v0.006zM213.103-41.721v121.773c0 2.828-2.292 5.12-5.12 5.12h-7.472c-2.828 0-5.12-2.292-5.12-5.12v0-121.635c0-2.828 2.292-5.12 5.12-5.12h7.057c0.125-0.011 0.27-0.017 0.417-0.017 2.785 0 5.051 2.224 5.118 4.992v0.006zM240.778-41.721v121.773c0 2.828-2.292 5.12-5.12 5.12v0h-7.472c-2.828 0-5.12-2.292-5.12-5.12v0-121.635c0-2.828 2.292-5.12 5.12-5.12v0h7.057c0.125-0.011 0.27-0.017 0.417-0.017 2.785 0 5.051 2.224 5.118 4.992v0.006zM268.454-41.721v121.773c0 2.828-2.292 5.12-5.12 5.12v0h-7.472c-2.828 0-5.12-2.292-5.12-5.12v0-121.635c0-2.828 2.292-5.12 5.12-5.12v0h7.057c0.166-0.019 0.359-0.030 0.555-0.030 2.79 0 5.058 2.231 5.119 5.006v0.006zM296.13-41.721v121.773c0 2.828-2.292 5.12-5.12 5.12v0h-7.472c-2.828 0-5.12-2.292-5.12-5.12v0-121.635c0-2.828 2.292-5.12 5.12-5.12v0h7.057c0.166-0.019 0.359-0.030 0.555-0.030 2.79 0 5.058 2.231 5.119 5.006v0.006zM323.805-41.721v121.773c0 2.828-2.292 5.12-5.12 5.12v0h-7.334c-2.828 0-5.12-2.292-5.12-5.12v0-121.635c0-2.828 2.292-5.12 5.12-5.12h6.919c0.166-0.019 0.359-0.030 0.555-0.030 2.79 0 5.058 2.231 5.119 5.006v0.006zM351.481-41.721v121.773c0 2.828-2.292 5.12-5.12 5.12v0h-7.334c-2.828 0-5.12-2.292-5.12-5.12v0-121.635c0-2.828 2.292-5.12 5.12-5.12h6.919c0.166-0.019 0.359-0.030 0.555-0.030 2.79 0 5.058 2.231 5.119 5.006v0.006zM379.157-41.721v121.773c0 2.828-2.292 5.12-5.12 5.12v0h-7.334c-2.828 0-5.12-2.292-5.12-5.12v0-121.635c0-2.828 2.292-5.12 5.12-5.12h6.919c0.166-0.019 0.359-0.030 0.555-0.030 2.79 0 5.058 2.231 5.119 5.006v0.006zM406.832-41.721v121.773c0 2.828-2.292 5.12-5.12 5.12v0h-7.334c-2.828 0-5.12-2.292-5.12-5.12v0-121.635c0-2.828 2.292-5.12 5.12-5.12h6.919c0.166-0.019 0.359-0.030 0.555-0.030 2.79 0 5.058 2.231 5.119 5.006v0.006z" />
<glyph unicode="&#xef6c;" glyph-name="PortLoading" horiz-adv-x="1310" d="M0 702.611h1217.583v-150.775h-1217.583zM32.106 627.291h1154.997v39.692h-1154.862zM524.937 695.838v-746.833h-37.254v30.48h-203.201v-30.48h-33.867v30.48h-198.189l-3.387-30.48h-33.867v55.948l232.056 250.615v433.496l15.308 21.946 221.761 248.99h50.8l673.952-262.536zM1109.074 724.693l-582.511 221.761v-208.349zM301.416 734.853l189.655 1.626v209.975zM496.218 585.838h-201.576l201.576-243.842zM496.218 319.103l-201.576 248.041v-248.177zM487.684 301.221h-201.576l201.576-243.842zM487.684 34.485l-201.44 248.177v-248.041zM65.973 33.672h186.403v201.711zM1103.655 273.992h145.763v-92.66h-145.628zM946.919 181.467h145.628v92.524h-145.628zM790.454 181.467h145.628v92.524h-145.628zM635.072 181.467h145.763v92.524h-145.763zM1102.842 287.945h145.763v92.66h-145.763zM945.971 287.945h145.628v92.66h-145.628zM789.505 287.945h145.221v92.66h-145.221zM634.124 287.945h145.763v92.66h-145.628zM1168.95 479.225h-453.41l19.372-83.584h413.176zM836.784 465.679h-101.872l12.869-57.303h89.002zM848.705 408.647h89.002v57.167h-89.002zM950.035 408.647h89.002v57.167h-89.002zM1153.236 465.679h-102.278v-57.303h89.002zM893.409 479.225h101.33v62.451h-101.601zM943.261 165.889h-368.337c61.909-69.224 36.576-162.561 89.273-228.534l279.876-1.355-0.948 230.295zM942.178 165.889l-0.948-230.295 279.876 1.355c52.561 65.702 27.094 159.445 89.273 228.534h-368.337z" />
<glyph unicode="&#xef6d;" glyph-name="POO" horiz-adv-x="1311" d="M1311.274 21.921h-40.479l-2.612 32.645-66.856 45.703-65.289-44.919-3.656-33.428h-119.349v311.3h214.411l82.787-195.868zM1191.663 283.079h-78.347v-106.552h119.61zM757.358 26.883c-1.736-47.095-40.333-84.615-87.693-84.615-48.462 0-87.749 39.287-87.749 87.749s39.287 87.749 87.749 87.749c0.072 0 0.144 0 0.216 0h-0.011c48.541-1.017 87.502-40.608 87.502-89.298 0-0.557-0.005-1.114-0.015-1.669l0.001 0.083zM669.87 76.503c-0.545 0.021-1.185 0.034-1.828 0.034-27.404 0-49.62-22.216-49.62-49.62s22.216-49.62 49.62-49.62c27.393 0 49.601 22.196 49.62 49.584v0.002c0.007 0.313 0.011 0.681 0.011 1.051 0 26.556-21.31 48.135-47.762 48.569l-0.041 0.001zM1284.113 29.756c-1.736-47.095-40.333-84.615-87.693-84.615-48.462 0-87.749 39.287-87.749 87.749s39.287 87.749 87.749 87.749c0.072 0 0.144 0 0.216 0h-0.011c48.541-1.017 87.502-40.608 87.502-89.298 0-0.557-0.005-1.114-0.015-1.669l0.001 0.083zM1196.625 79.376c-0.545 0.021-1.185 0.034-1.828 0.034-27.404 0-49.62-22.216-49.62-49.62s22.216-49.62 49.62-49.62c27.393 0 49.601 22.196 49.62 49.584v0.002c0.007 0.312 0.011 0.679 0.011 1.047 0 26.648-21.458 48.284-48.037 48.572h-0.027zM470.084-61.127h-352.563v608.237h352.563zM354.13 385.453h-137.108v-221.984h137.108zM1044.631 600.908h-1044.631l18.542-53.799h1012.509zM946.697 547.109h-476.613v-66.856h476.613zM0 600.908h1044.631l-530.412 359.092zM992.4 21.921h-440.573v374.5h440.573zM669.87 118.027c-49.024-3.369-87.516-43.963-87.516-93.548 0-0.808 0.010-1.613 0.031-2.416l-0.002 0.119h176.804c0.003 0.284 0.005 0.62 0.005 0.957 0 50.481-39.349 91.772-89.049 94.874l-0.272 0.014z" />
<glyph unicode="&#xef6e;" glyph-name="POD" horiz-adv-x="1311" d="M759.447 21.921h-40.479l-2.612 32.645-66.073 45.703-66.073-44.919-3.656-33.428h-119.088v311.3h215.455l82.787-195.868zM639.837 283.079h-78.347v-106.552h117.521zM205.792 26.883c0.009-0.472 0.014-1.028 0.014-1.585 0-48.69-38.961-88.28-87.407-89.296l-0.095-0.002c-50.482 0-91.405 40.924-91.405 91.405s40.924 91.405 91.405 91.405v0c48.552-1.004 87.527-40.599 87.527-89.298 0-0.925-0.014-1.846-0.042-2.764l0.003 0.134zM118.305 76.503c-25.812-1.933-46.023-23.351-46.023-49.489s20.211-47.556 45.857-49.479l0.166-0.010c25.812 1.933 46.023 23.351 46.023 49.489s-20.211 47.556-45.857 49.479l-0.166 0.010zM731.242 29.756c-1.736-47.095-40.333-84.615-87.693-84.615-48.462 0-87.749 39.287-87.749 87.749s39.287 87.749 87.749 87.749c0.072 0 0.144 0 0.216 0h-0.011c48.541-1.017 87.502-40.608 87.502-89.298 0-0.557-0.005-1.114-0.015-1.669l0.001 0.083zM643.754 79.376c-0.545 0.021-1.185 0.034-1.828 0.034-27.404 0-49.62-22.216-49.62-49.62s22.216-49.62 49.62-49.62c27.393 0 49.601 22.196 49.62 49.584v0.002c0.008 0.321 0.012 0.699 0.012 1.079 0 26.189-20.725 47.537-46.668 48.539l-0.091 0.003zM840.145 547.109h352.563v-608.237h-351.518zM957.144 163.469h137.108v221.984h-137.108zM280.222 547.109h1012.509l18.542 53.799h-1044.631zM365.621 479.992h475.568v67.118h-475.568zM797.054 960l-530.412-359.092h1044.631zM440.312 21.921h-440.312v374.5h440.312zM118.043 118.027c-49.024-3.369-87.516-43.963-87.516-93.548 0-0.808 0.010-1.613 0.031-2.416l-0.002 0.119h176.543c0.003 0.289 0.005 0.631 0.005 0.973 0 50.389-39.206 91.622-88.777 94.857l-0.283 0.015z" />
<glyph unicode="&#xef74;" glyph-name="container" horiz-adv-x="1136" d="M1136.307 288.88c-1.017-5.545-1.818-12.27-2.225-19.101l-0.023-0.479q-0.3-143.574-0.25-287.198v-15.259l-745.492-29.969v13.885q0 298.362-0.225 596.749c0 10.739 1.299 14.834 14.060 14.285 172.444-7.242 344.913-13.686 517.382-20.503 69.402-2.747 138.804-5.869 208.181-8.741 3.105 0.101 6.061 0.451 8.932 1.032l-0.341-0.058zM489.311 250.12v71.175c0 60.736-0.15 121.497 0 182.309 0 10.764-3.072 17.482-14.635 19.055-16.633 2.223-22.476-3.571-22.476-23.95q-0.15-214.775-0.225-429.399 0-36.187 0.4-72.424c0-10.339 3.546-17.482 15.858-17.756 16.258-0.3 20.853 3.596 20.853 20.154q0.275 125.393 0.225 250.837zM953.998 252.618v-128.49c0-35.762-0.325-71.525 0.35-107.387 0-5.694 3.222-14.235 7.492-16.433 16.133-8.241 28.545 0.275 29.094 18.406 0 2.897 0 5.819 0 8.716v451.751c0 4.146-0.15 8.316-0.3 12.487-0.3 9.59-5.195 14.060-14.859 14.56-17.082 0.849-21.852-3.172-21.852-20.254q0.075-116.678 0.075-233.33zM856.776 251.394v-177.164c0-20.778 0-41.581 0-62.434 0-10.489 6.144-16.233 15.933-17.482s16.807 3.871 18.93 13.885c1.001 4.703 1.574 10.107 1.574 15.645 0 0.145 0 0.291-0.001 0.436v-0.022q0.15 225.813 0 451.626c0.050 0.893 0.078 1.937 0.078 2.988 0 5.061-0.657 9.969-1.891 14.642l0.090-0.399c-1.174 3.671-4.995 8.566-8.291 9.115-17.482 2.947-26.872 1.448-26.722-18.955 0.649-77.144 0.3-154.488 0.3-231.857zM1093.727 249.446h0.125q0 115.454 0 230.908c0 14.984-4.445 19.979-17.282 20.553s-17.706-4.196-19.18-18.73c-0.186-2.524-0.292-5.467-0.292-8.435 0-1.425 0.024-2.844 0.073-4.257l-0.006 0.205v-318.216c0-43.679 0-87.408 0-131.037 0-17.132 4.995-22.202 19.829-21.652 12.487 0.475 16.682 5.869 16.707 22.302q0.15 114.205 0.15 228.385zM556.516 251.569q0-95.475 0-191.024 0-30.568 0-61.161c0-10.914 4.995-17.232 16.233-17.956s17.482 4.42 19.030 16.508c0.17 1.99 0.267 4.307 0.267 6.646 0 1.176-0.025 2.346-0.073 3.51l0.006-0.166v486.989c0 3.746 0.749 7.792-0.45 11.138s-3.796 8.017-6.943 9.315c-17.057 7.118-27.971-0.524-27.971-19.005q-0.125-122.397-0.1-244.768zM656.81 250.395v0q0-122.921 0-245.792c0-14.285 4.87-20.454 17.132-20.678 11.463-0.2 17.931 6.843 17.956 20.354q0 247.066 0 494.106c0.105 0.684 0.166 1.472 0.166 2.275 0 1.383-0.179 2.725-0.515 4.003l0.024-0.109c-1.324 2.872-2.922 6.393-5.444 7.792-14.635 8.216-29.194-0.599-29.194-17.482zM753.809 249.945v-81.090q0-81.115 0-162.18c0-14.635 5.794-20.429 19.105-19.979 11.213 0.375 16.558 6.893 16.558 21.602q0 242.021 0 484.017c0 16.757-3.222 19.529-19.979 18.98-13.536-0.425-15.733-2.747-15.758-19.33q-0.050-120.998 0.075-241.996zM0 296.372c0.91-4.519 1.621-9.965 1.978-15.507l0.019-0.377q0.499-131.712 0.499-263.423c0-15.733 0-31.467 0-48.1l171.095-15.858c0.489 1.521 0.916 3.358 1.199 5.243l0.025 0.201c0 73.673 0.15 147.345-0.275 221.018 0 3.322-4.295 8.241-7.717 9.615-8.641 3.496-16.083 7.292-16.383 17.881-0.35 12.487-0.624 24.974-0.275 37.461 0 3.821 2.373 7.492 3.671 11.388l3.946-0.799c0-13.935 0-27.896 0-41.831 0-6.943 0.15-13.96 9.84-14.060 10.564-0.125 7.492 7.967 7.492 13.486q0.175 164.827 0 329.654c0 3.971-0.325 7.917-0.524 12.487l-174.592-8.741zM192.997-52.662l171.87-11.263v626.517l-171.87-5.344zM510.489 787.306c-4.295-4.995-8.566-9.99-12.911-14.76q-72.599-81.514-145.297-163.004c-6.768-7.492-10.914-14.984-1.124-23.4s14.784 0.2 19.979 6.293q82.039 94.9 163.953 189.801c19.979 23.126 32.741 25.848 60.137 12.762q198.567-94.9 397.083-189.801c37.461-17.906 74.921-35.837 112.632-53.369 8.141-3.771 18.955-11.912 25.149 0 6.593 12.637-5.919 16.732-14.834 20.978q-257.53 123.046-515.259 245.767c-6.268 2.972-8.791 6.418-8.216 13.236 1.099 13.136-4.695 23.076-14.984 31.167-3.371 2.697-5.394 7.093-10.564 14.11 20.778-4.995 22.252 5.369 22.851 17.856 0.761 7.398 2.772 14.165 5.824 20.324l-0.155-0.345c6.418 14.66 9.615 29.544 7.492 44.953h-86.934c-0.749-16.058-1.099-30.518 8.841-43.779 3.796-4.995 4.82-13.386 4.57-20.154-0.475-12.911 0-23.8 11.763-22.701 9.315-11.088 16.857-18.655 22.476-27.471 2.766-4.376 4.407-9.701 4.407-15.41 0-0.791-0.031-1.574-0.093-2.349l0.007 0.102c-0.35-3.671-7.143-10.164-9.215-9.54-5.17 1.623-9.465 6.393-13.711 10.314-1.748 1.598-2.223 4.495-3.771 6.418-4.046 4.995-8.341 9.99-14.56 17.132-1.948-8.216-4.795-13.036-3.496-16.033 4.745-10.839-2.173-13.461-9.64-17.132q-202.288-98.796-404.326-197.817c-26.772-13.011-53.619-26.073-80.391-39.608-3.147-1.598-7.043-5.769-6.943-8.641 0.657-4.031 3.272-7.331 6.818-8.935l0.074-0.030c1.082-0.178 2.329-0.28 3.6-0.28 3.853 0 7.488 0.934 10.69 2.588l-0.13-0.061q181.060 86.634 361.945 173.743 52.070 24.974 104.191 49.948z" />
<glyph unicode="&#xef8a;" glyph-name="discountpercent" horiz-adv-x="1025" d="M579.686 693.502c8.886-0.62 16.354-6.111 19.799-13.798l0.059-0.148c1.724-3.318 2.735-7.245 2.735-11.409 0-6.752-2.659-12.883-6.988-17.403l0.009 0.009-70.338-84.891-167.736-201.238c-5.836-6.973-11.597-14.022-17.509-20.92-4.745-6.1-12.086-9.987-20.334-9.987-14.191 0-25.695 11.504-25.695 25.695 0 0.367 0.008 0.732 0.023 1.095l-0.002-0.052c0.36 6.363 2.885 12.075 6.843 16.472l-0.021-0.024 254.825 305.836c5.194 6.626 13.198 10.845 22.188 10.845 0.754 0 1.501-0.030 2.24-0.088l-0.098 0.006zM447.953 411.315c0.261 42.374 34.672 76.624 77.083 76.624 42.572 0 77.084-34.512 77.084-77.084s-34.512-77.084-77.084-77.084c-0.319 0-0.638 0.002-0.957 0.006h0.048c-42.189 0.555-76.176 34.886-76.176 77.154 0 0.135 0 0.271 0.001 0.406v-0.021zM525.113 385.241c0.023 0 0.049 0 0.076 0 14.164 0 25.652 11.461 25.695 25.615v0.004c-0.253 14.141-11.692 25.528-25.83 25.695h-0.016c-14.049-0.17-25.383-11.557-25.467-25.611v-0.008c-0.001-0.068-0.001-0.148-0.001-0.228 0-14.023 11.368-25.392 25.392-25.392 0.054 0 0.107 0 0.161 0h-0.008zM447.953 616.342c-0.131-42.515-34.626-76.93-77.16-76.93-42.614 0-77.16 34.546-77.16 77.16s34.546 77.16 77.16 77.16c0.213 0 0.426-0.001 0.639-0.003h-0.033c42.371-0.429 76.554-34.876 76.554-77.308 0-0.028 0-0.056 0-0.084v0.004zM370.793 642.189c-14.174-0.043-25.652-11.521-25.695-25.691v-0.004c0.289-14.005 11.545-25.287 25.512-25.618l0.031-0.001c14.191 0 25.695 11.504 25.695 25.695v0c0.001 0.090 0.002 0.197 0.002 0.304 0 13.982-11.334 25.316-25.316 25.316-0.081 0-0.161 0-0.242-0.001h0.012zM525.113 385.317c-0.046 0-0.1 0-0.154 0-14.023 0-25.392 11.368-25.392 25.392 0 0.133 0.001 0.267 0.003 0.399v-0.020c0.084 14.062 11.418 25.449 25.451 25.619h0.016c14.154-0.167 25.594-11.554 25.846-25.671v-0.024c0 0 0 0 0 0 0-14.191-11.504-25.695-25.695-25.695-0.027 0-0.053 0-0.080 0h0.004zM370.793 642.189c0.091 0.001 0.198 0.002 0.305 0.002 13.982 0 25.316-11.334 25.316-25.316 0-0.107-0.001-0.214-0.002-0.321v0.016c0 0 0 0 0 0 0-14.191-11.504-25.695-25.695-25.695-0.027 0-0.053 0-0.080 0h0.004c-14.030 0.291-25.328 11.588-25.618 25.591v0.027c0.043 14.2 11.564 25.695 25.77 25.695 0 0 0 0 0 0v0zM22.284 370.537v0h-0.455zM38.353 328.091v0h-0.455zM27.665 354.62v0h-0.455zM618.569 213.564c34.714 0 62.835 0.834 90.955 0 16.296-0.682 21.299 4.624 21.071 20.844-0.834 61.016 0.531 122.107-0.834 183.122-0.455 20.389 5.836 25.316 25.392 24.861q82.238-1.971 164.552 0c19.404 0.455 23.345-6.215 22.739-24.179-1.061-57.453-0.455-114.982 0-172.511 0-22.132 16.22-32.895 37.898-31.379 39.793 2.729 43.052 0.379 69.808 2.956-9.929-13.416-16.978-22.739-24.179-32.592q-89.591-119.075-179.333-237.013c-5.381-7.049-9.778-19.479-20.92-4.851-67.761 88.454-135.144 176.68-207.15 270.742zM2.35 567.909c-0.35-2.684-0.55-5.787-0.55-8.937 0-0.589 0.007-1.176 0.021-1.761l-0.002 0.087c-4.245-74.356-2.501-127.867 20.465-188.049l1.289 0.758c5.836-3.411 4.624-9.399 4.093-15.159 5.836-2.729 5.76-7.58 5.154-13.34v-1.743c3.417-1.596 5.742-5.004 5.742-8.955 0-0.94-0.132-1.85-0.378-2.711l0.017 0.070c3.411-0.531 4.775-1.743 1.137-4.548 3.562-7.883 6.139-16.296 10.46-24.027 78.053-140.87 225.84-234.654 395.532-234.654 40.785 0 80.306 5.418 117.88 15.573l-3.156-0.726c64.351 17.357 63.82 16.902 22.739 69.050-10.384 13.264-19.101 15.159-35.321 11.445-47.221-10.308-94.138-19.252-144.012-13.264-217.609 26.074-364.426 226.326-321.146 441.586 40.172 199.646 251.718 333.501 449.090 283.552 159.702-40.172 266.498-167.13 286.053-342.218 2.046-18.191 6.746-23.951 24.937-22.739 59.348 3.108 55.028-14.098 52.223 54.952-0.909 14.482-2.852 27.922-5.783 40.988l0.325-1.726c-41.536 210.485-238.605 365.108-457.124 358.589-216.094-6.822-399.974-177.21-429.686-392.091zM21.678 372.204c14.25 0.834 26.15-45.477 18.722-49.267-4.699 2.501-18.494 44.644-18.722 49.267z" />
<glyph unicode="&#xef8e;" glyph-name="depot-stock" d="M185.255 574.598h653.49v-638.598h183.824v785.606l-525.127 238.394-496.011-238.394v-785.606h183.824zM381.488 60.542h115.954v-100.029h-115.954v100.029zM523.803 60.542h115.954v-100.029h-115.954v100.029zM239.19 60.542h115.954v-100.029h-115.954v100.029zM381.488 197.749h115.954v-100.029h-115.954v100.029zM239.19 197.749h115.954v-100.029h-115.954v100.029zM523.803 197.749h115.954v-100.029h-115.954v100.029zM381.488 334.936h115.954v-100.029h-115.954v100.029zM239.19 334.936h115.954v-100.029h-115.954v100.029zM666.101 60.542h115.954v-100.029h-115.954v100.029z" />
<glyph unicode="&#xef98;" glyph-name="CR-Additional-Request" horiz-adv-x="994" d="M0 938.667q263.648 0 526.989 0c0.427 0.018 0.927 0.028 1.431 0.028 10.366 0 19.726-4.311 26.383-11.238l0.012-0.012q132.977-128.211 266.723-255.5c10.805-9.003 17.632-22.463 17.632-37.518 0-1.133-0.039-2.257-0.115-3.371l0.008 0.151c-1.384-51.807 0-103.768 0-156.959h-24.289v37.203c0 22.137 0 44.428 0 66.565 0 33.513-12.76 46.119-47.349 46.119h-181.71c-49.040 0-69.947 21.369-69.333 70.409 0 56.419 1.076 112.838 1.537 169.104 0 38.433-15.373 54.267-56.112 53.806-53.498 0-107.611-2.306-160.495-2.306-73.637 0-147.274 1.384-220.911 1.845-46.119 0-57.649-11.837-57.649-57.188l0.922-832.759c0-15.373 0-32.283 0-48.271 1.691-29.209 13.221-39.355 42.276-39.355h398.162q151.425 0 302.849 0c36.742 0 47.81 11.222 47.81 47.964s0 76.865 0 115.452h23.828v-15.373q0-77.941 0-155.883c-0.46-5.715-1.332-10.959-2.602-16.045l0.142 0.672h-836.141zM676.415 643.197v-1.076c35.819 0 71.638 0 107.611 0 5.429 1.013 9.935 4.307 12.559 8.829l0.047 0.088c0.194 0.858 0.305 1.844 0.305 2.856 0 3.675-1.465 7.007-3.843 9.445l0.003-0.003q-118.065 111.762-236.745 222.756c-3.382 3.228-10.915 6.303-13.528 4.612-4.893-3.209-8.344-8.273-9.36-14.171l-0.018-0.126c0-65.182 0-130.21 0-195.238 0.173-21.156 17.277-38.26 38.416-38.433h0.017c34.743 0.154 69.486 0.461 104.537 0.461zM653.817 288.386c-0.001 0.228-0.002 0.497-0.002 0.767 0 93.818 76.054 169.872 169.872 169.872s169.872-76.054 169.872-169.872c0-93.818-76.054-169.872-169.872-169.872-0.27 0-0.539 0.001-0.808 0.002h0.041c-93.393 0-169.104 75.71-169.104 169.104v0zM816.925 375.859v-74.252h-93.622v-27.518h94.544v-73.33h24.136v73.791h81.631v28.286h-82.861v73.022zM662.579 93.148c-9.045 6.783-19.663 12.065-31.162 15.219l-0.66 0.154c-5.878 0.626-12.698 0.983-19.601 0.983s-13.723-0.357-20.442-1.054l0.841 0.071c-133.592 0-267.338 0-400.93-1.23-11.222 0-22.598-10.915-33.052-17.986 0.82-5.397 3.065-10.162 6.337-14.031l-0.034 0.041c1.845-1.998 7.687 0 11.684 0h488.71c-0.461 6.61 1.23 15.373-1.691 17.833zM554.968 237.040c4.458 0 11.222 1.537 12.606 4.458s2.152 13.067 0 15.373c-7.39 7.554-16.924 12.984-27.616 15.307l-0.363 0.066c-116.528 1.076-233.056 0.922-349.584 0-10.548-1.712-19.818-6.253-27.27-12.811l0.060 0.052c-3.086-3.246-4.984-7.646-4.984-12.489 0-1.293 0.135-2.555 0.393-3.771l-0.021 0.118c0.769-3.075 9.224-5.688 14.297-5.688 63.644 0 127.135 0 190.78 0s127.75-1.537 191.702-1.23zM554.968 382.469c4.612 0 12.76 3.075 13.067 5.534 0.179 1.023 0.281 2.201 0.281 3.403 0 5.030-1.79 9.642-4.767 13.235l0.028-0.034c-7.852 5.909-17.418 9.965-27.828 11.343l-0.304 0.033c-27.21 1.537-54.574 0-81.785 0-89.318 0-178.635 0-267.799-1.537-8.972-1.369-16.853-5.272-23.096-10.947l0.036 0.032c-3.69-2.921-7.687-11.53-5.995-14.143 3.691-4.478 9.179-7.36 15.344-7.532l0.029-0.001c63.491 0 127.135 0 190.78 0s127.75-0.307 191.856 0zM196.929 538.967c66.565 0.769 133.131 0 199.85 0 0.318-0.008 0.692-0.012 1.068-0.012 15.177 0 28.723 6.982 37.602 17.909l0.070 0.089c-8.611 14.379-24.107 23.855-41.817 23.855-2.004 0-3.979-0.121-5.92-0.357l0.233 0.023c-63.030-1.23-126.059-1.076-188.935 0-1.518 0.194-3.274 0.304-5.056 0.304-15.383 0-28.839-8.246-36.191-20.558l-0.107-0.193c7.558-12.728 21.233-21.125 36.87-21.125 0.82 0 1.635 0.023 2.444 0.069l-0.112-0.005zM196.929 696.387c66.565 0.922 133.131 0.769 199.85 0 15.561 0.020 29.511 6.897 38.995 17.771l0.053 0.062c-15.373 19.524-20.139 22.291-34.436 22.291-69.025 0-138.358 0-207.075 0-0.807 0.060-1.748 0.094-2.697 0.094-14.734 0-27.547-8.226-34.097-20.335l-0.101-0.205c8.136-12.322 21.923-20.341 37.582-20.341 0.732 0 1.459 0.018 2.182 0.052l-0.102-0.004z" />
<glyph unicode="&#xefc4;" glyph-name="Export" horiz-adv-x="1000" d="M0-17.534v510.582h133.399v-464.116h733.423v464.116h133.29v-510.582c-0.443-13.866-7.949-25.885-19.022-32.624l-0.175-0.099c-12.669-8.431-28.238-13.453-44.979-13.453-0.868 0-1.733 0.014-2.595 0.040l0.126-0.003h-866.822c-0.732-0.024-1.594-0.037-2.458-0.037-16.709 0-32.244 5.023-45.179 13.641l0.299-0.187c-11.306 6.8-18.861 18.832-19.305 32.66l-0.002 0.063zM400.089 659.934v-466.734h199.826v466.734h200.153l-299.957 300.066-300.066-300.066z" />
<glyph unicode="&#xefd3;" glyph-name="Draft" d="M1018.35 464.529h-194.869c-9.043 165.027-145.071 295.415-311.538 295.415s-302.491-130.389-311.499-294.614l-0.032-0.801h-194.869c-14.785 0-26.771-11.989-26.771-26.771s11.989-26.771 26.771-26.771h196.74c19.128-155.621 150.494-274.944 309.729-274.944s290.602 119.323 309.58 273.438l0.149 1.506h196.74c14.785 0 26.771 11.989 26.771 26.771s-11.989 26.771-26.771 26.771v0zM512.021 736.687c153.648-0.065 279.251-120.001 288.375-271.367l0.039-0.801h-577.006c9.142 152.204 134.822 272.162 288.496 272.162 0.021 0 0.060 0 0.082 0h-0.007zM512.021 158.655c-146.595 0.021-267.67 109.191-286.396 250.668l-0.161 1.464h573.067c-18.9-142.917-139.951-252.072-286.504-252.13h-0.011zM52.646 502.843c-9.649 10.282-15.59 24.166-15.59 39.44 0 0.931 0.021 1.854 0.060 2.79l-0.008-0.138c-0.024 0.723-0.051 1.555-0.051 2.4 0 16.723 6.611 31.912 17.361 43.070l-0.021-0.021c10.952 10.78 25.991 17.448 42.599 17.448 0.829 0 1.651-0.021 2.467-0.055l-0.118 0.006c0.684 0.021 1.48 0.026 2.283 0.026 9.493 0 18.626-1.581 27.142-4.502l-0.59 0.177v-25.323c-7.391 4.392-16.31 7.001-25.83 7.001-0.314 0-0.627-0.005-0.939-0.014l0.052 0.001c-0.45 0.021-0.957 0.026-1.485 0.026-9.795 0-18.66-3.963-25.077-10.39v0c-6.442-6.845-10.39-16.083-10.39-26.236 0-0.622 0.021-1.238 0.048-1.854l-0.005 0.093c-0.028-0.58-0.060-1.269-0.060-1.948 0-9.635 3.64-18.426 9.61-25.055l-0.025 0.031c6.143-6.416 14.761-10.39 24.311-10.39 0.555 0 1.105 0.021 1.649 0.040l-0.076-0.005c0.134-0.002 0.28-0.003 0.427-0.003 10.225 0 19.791 2.79 27.987 7.652l-0.255-0.138v-24.024c-8.961-3.956-19.418-6.266-30.409-6.266-1.046 0-2.088 0.021-3.137 0.060l0.145-0.008c-0.774-0.038-1.692-0.060-2.595-0.060-15.381 0-29.338 6.174-39.496 16.161l0.013-0.012zM895.134 489.077h-23.809v116.807h38.514l23.869-69.274c1.698-4.716 3.137-10.329 4.073-16.122l0.070-0.56h0.528c1.519 6.923 3.098 12.577 4.97 18.105l-0.36-1.23 23.869 69.069h37.533v-116.807h-25.883v69.843c0 7.555 0.372 15.888 0.989 25.016h-0.62c-1.035-6.074-2.314-11.308-3.917-16.395l0.235 0.867-27.391-79.37h-21.581l-27.859 78.59c-1.28 4.263-2.556 9.731-3.534 15.317l-0.138 0.937h-0.723q1.084-17.243 1.084-30.277z" />
<glyph unicode="&#xefe3;" glyph-name="Add_line-icon" d="M1024 458.665v-64h-479.998v-479.998h-64v480.002h-480.002v63.996h480.002v480.002h64v-480.002z" />
<glyph unicode="&#xefe4;" glyph-name="Delete_line_icon" horiz-adv-x="832" d="M832.020 767.98h-64.020v-735.969c0.002-0.204 0.003-0.446 0.003-0.688 0-13.305-2.758-25.965-7.734-37.441l0.235 0.61c-9.921-23.065-27.93-41.074-50.373-50.756l-0.622-0.239c-10.866-4.74-23.527-7.498-36.831-7.498-0.242 0-0.484 0.001-0.725 0.003h-511.963c-0.192-0.001-0.42-0.002-0.648-0.002-13.304 0-25.965 2.758-37.44 7.733l0.609-0.235c-23.087 9.888-41.107 27.908-50.758 50.374l-0.237 0.621c-4.74 10.866-7.498 23.527-7.498 36.831 0 0.242 0.001 0.484 0.003 0.725v-0.037 735.969h-64.020v64.020h256v63.98c-0.002 0.168-0.003 0.366-0.003 0.565 0 8.838 1.839 17.247 5.156 24.864l-0.156-0.402c3.427 7.864 8.066 14.577 13.759 20.231l0.004 0.004c5.644 5.675 12.326 10.31 19.738 13.599l0.414 0.164c7.215 3.161 15.625 5 24.464 5 0.227 0 0.453-0.001 0.679-0.004h191.945c0.168 0.002 0.367 0.003 0.566 0.003 8.824 0 17.218-1.839 24.82-5.155l-0.401 0.156c7.949-3.432 14.741-8.072 20.485-13.767l-0.005 0.005c5.669-5.666 10.293-12.376 13.559-19.818l0.163-0.416c3.186-7.199 5.041-15.594 5.041-24.423 0-0.212-0.001-0.424-0.003-0.635v0.032-63.98h256zM704.020 767.98h-576.020v-735.969c0.227-17.584 14.41-31.78 31.966-32.030h512.024c17.598 0.228 31.803 14.433 32.030 32.009v0.022zM320.020 127.98h-64.020v512h64.020zM320.020 832h191.98v63.98h-191.98zM448.020 127.98h-64.020v512h64.020zM576.020 127.98h-64.020v512h64.020z" />
<glyph unicode="&#xefe5;" glyph-name="reset_line_icon" d="M648.499 919.666c57.861-15.75 108.497-39.834 153.597-71.304l-1.594 1.054c45.887-31.832 85.083-69.2 117.846-111.775l0.906-1.225c31.783-41.386 57.961-89.254 76.143-140.89l1.107-3.609c17.429-49.394 27.499-106.353 27.499-165.664 0-48.245-6.663-94.933-19.119-139.195l0.868 3.611c-13.051-46.603-30.622-87.286-52.818-124.916l1.319 2.417c-45.182-76.492-107.259-138.569-181.381-182.452l-2.37-1.299c-35.219-20.878-75.908-38.45-118.867-50.616l-3.648-0.883c-40.778-11.587-87.611-18.25-135.999-18.25s-95.222 6.662-139.631 19.12l3.632-0.87c-46.598 13.051-87.276 30.623-124.902 52.817l2.416-1.318c-76.492 45.182-138.569 107.259-182.452 181.381l-1.299 2.37c-20.844 35.139-38.412 75.734-50.609 118.59l-0.89 3.659c-11.587 40.676-18.249 87.392-18.249 135.664 0 48.603 6.754 95.629 19.374 140.191l-0.876-3.618c13.374 47.277 31.372 88.537 54.090 126.658l-1.322-2.394c23.976 40.361 51.541 75.172 83.115 105.884l0.116 0.112c32.086 31.216 68.387 58.353 107.907 80.417l2.603 1.335h-137.011v64h256v-256h-64v148.5c-114.687-55.437-200.743-154.876-237.175-275.819l-0.823-3.18c-11.423-37.626-17.999-80.869-17.999-125.648 0-42.204 5.842-83.043 16.76-121.753l-0.76 3.153c43.301-152.297 160.752-269.83 309.823-312.472l3.177-0.777c35.641-10.159 76.576-16 118.874-16s83.233 5.841 122.041 16.761l-3.167-0.761c152.297 43.301 269.83 160.752 312.472 309.823l0.777 3.177c10.159 35.5 16.001 76.274 16.001 118.412 0 51.957-8.881 101.839-25.209 148.212l0.959-3.125c-32.889 93.479-92.678 170.627-170.006 224.271l-1.494 0.981c-38.008 26.602-82.21 47.752-129.7 61.023l-3.051 0.728z" />
<glyph unicode="&#xefe6;" glyph-name="save_line_icon" d="M950.858 938.667c0.19 0.002 0.414 0.003 0.638 0.003 10.095 0 19.696-2.111 28.387-5.915l-0.456 0.178c8.986-3.932 16.66-9.226 23.142-15.712v0c6.486-6.482 11.78-14.156 15.525-22.666l0.187-0.476c3.626-8.236 5.737-17.837 5.737-27.932 0-0.224-0.001-0.448-0.003-0.672v0.034-950.841h-893.157l-130.859 131.428v819.429c-0.002 0.19-0.003 0.414-0.003 0.638 0 10.095 2.111 19.696 5.915 28.387l-0.178-0.456c3.932 8.986 9.226 16.66 15.712 23.142v0c6.482 6.486 14.156 11.78 22.666 15.525l0.476 0.187c8.225 3.616 17.814 5.721 27.894 5.721 0.232 0 0.463-0.001 0.695-0.003h-0.035zM219.427 499.809h585.146v365.715h-585.146zM658.285 207.236h-365.711v-219.427h73.142v146.285h73.142v-146.285h219.427zM950.858 865.525h-73.142v-438.858h-731.431v438.858h-73.142v-789.144l87.998-88.572h58.286v292.573h512v-292.573h219.427z" />
<glyph unicode="&#xefe7;" glyph-name="setting_line_icon" d="M893.735 444.775q0-4.526 0.25-9.052t0.25-9.052-0.25-9.052-0.25-9.052l130.253-80.974-79.97-192.627-149.377 34.202q-12.071-13.079-25.145-25.145l34.202-149.377-192.631-79.97-80.974 130.253q-4.526 0-9.052-0.25t-9.052-0.25-9.052 0.25-9.052 0.25l-80.974-130.253-192.618 79.962 34.202 149.377q-13.079 12.071-25.145 25.145l-149.377-34.202-79.97 192.631 130.253 80.974q0 4.526-0.25 9.052t-0.25 9.052 0.25 9.052 0.25 9.052l-130.253 80.978 79.966 192.627 149.377-34.202q12.071 13.079 25.145 25.145l-34.198 149.381 192.627 79.97 80.974-130.253q4.526 0 9.052 0.25t9.052 0.25 9.052-0.25 9.052-0.25l80.974 130.253 192.635-79.97-34.202-149.377q13.079-12.071 25.145-25.145l149.377 34.202 79.97-192.627zM834.892 379.391q1.008 12.071 2.011 23.892t1.008 23.892q0 11.567-1.008 23.638t-2.011 23.638l118.694 73.933-43.237 104.612-136.315-31.687c-10.44 12.8-20.886 24.284-31.909 35.186l-0.040 0.039q-16.347 16.093-35.459 32.19l31.691 136.266-104.612 43.254-74.428-118.686q-11.567 1.008-23.638 2.011t-23.638 1.008q-12.071 0-23.892-1.008t-23.892-2.011l-73.929 118.698-104.616-43.266 31.687-136.298c-12.8-10.439-24.284-20.886-35.186-31.909l-0.039-0.040q-16.085-16.323-32.17-35.434l-136.286 31.687-43.254-104.612 118.686-74.42q-1.008-12.071-2.011-23.892t-1.008-23.892q0-11.567 1.008-23.638t2.011-23.638l-118.694-73.933 43.262-104.62 136.298 31.687c10.44-12.8 20.886-24.284 31.909-35.186l0.040-0.039q16.347-16.093 35.459-32.19l-31.711-136.303 104.612-43.254 74.42 118.71q11.567-1.008 23.638-2.011t23.638-1.008q12.071 0 23.892 1.008t23.892 2.011l73.933-118.694 104.62 43.237-31.687 136.298c12.8 10.439 24.284 20.886 35.186 31.909l0.039 0.040q16.093 16.347 32.19 35.459l136.303-31.674 43.254 104.612zM512 615.775c0.366 0.003 0.798 0.004 1.231 0.004 26.18 0 51.085-5.459 73.639-15.302l-1.188 0.462c45.487-19.585 81.004-55.103 100.118-99.362l0.472-1.228c9.381-21.754 14.837-47.080 14.837-73.681s-5.456-51.927-15.309-74.921l0.473 1.24c-19.585-45.487-55.103-81.004-99.362-100.118l-1.228-0.472c-21.754-9.381-47.080-14.837-73.681-14.837s-51.927 5.456-74.921 15.309l1.24-0.473c-45.488 19.584-81.006 55.1-100.122 99.358l-0.472 1.228c-9.381 21.754-14.837 47.080-14.837 73.681s5.456 51.927 15.309 74.921l-0.473-1.24c19.585 45.489 55.102 81.007 99.362 100.122l1.228 0.472c21.366 9.381 46.271 14.84 72.452 14.84 0.433 0 0.865-0.001 1.298-0.004h-0.066zM512 293.891c0.284-0.002 0.62-0.004 0.956-0.004 18.364 0 35.841 3.793 51.692 10.638l-0.846-0.325c31.981 13.717 56.947 38.683 70.335 69.803l0.33 0.861c6.52 15.307 10.311 33.113 10.311 51.804s-3.79 36.497-10.644 52.692l0.334-0.887c-13.717 31.981-38.683 56.947-69.803 70.335l-0.861 0.33c-15.307 6.52-33.113 10.311-51.804 10.311s-36.497-3.79-52.692-10.644l0.887 0.334c-31.98-13.719-56.944-38.686-70.33-69.807l-0.33-0.861c-6.52-15.307-10.311-33.113-10.311-51.804s3.79-36.497 10.644-52.692l-0.334 0.887c13.718-31.98 38.683-56.944 69.803-70.33l0.861-0.33c15.005-6.52 32.483-10.313 50.846-10.313 0.336 0 0.672 0.001 1.007 0.004h-0.051z" />
<glyph unicode="&#xefe8;" glyph-name="Filter_line_icon" horiz-adv-x="1170" d="M1170.286 960v-125.143l-438.857-438.857v-460h-292.571v460l-438.857 438.857v125.143zM1097.143 886.857h-1024v-21.143l438.857-438.857v-417.714h146.286v417.714l438.857 438.857z" />
<glyph unicode="&#xefe9;" glyph-name="arrow_up_line_icon" horiz-adv-x="910" d="M0 466.771l455.113 471.896 455.11-471.896-43.527-45.131-380.631 394.669v-901.642h-61.907v901.642l-380.628-394.658z" />
<glyph unicode="&#xefea;" glyph-name="search_line_icon" d="M445.508 926.174c31.944-8.919 59.846-21.035 85.599-36.38l-1.597 0.882c52.445-31.387 95.112-74.054 125.591-124.867l0.907-1.632c30.164-50.848 47.99-112.088 47.99-177.492 0-42.969-7.694-84.142-21.781-122.214l0.79 2.439c-15.069-40.334-35.54-75.149-60.986-105.673l0.467 0.576 392.021-392.533c5.774-5.774 9.346-13.751 9.346-22.562 0-17.622-14.286-31.908-31.908-31.908-8.811 0-16.788 3.571-22.562 9.346v0l-392.533 392.021c-29.985-24.99-64.847-45.464-102.759-59.704l-2.474-0.815c-35.67-13.395-76.896-21.148-119.932-21.148-65.37 0-126.563 17.888-178.95 49.036l1.615-0.889c-52.445 31.387-95.112 74.054-125.591 124.867l-0.907 1.632c-30.274 50.821-48.169 112.067-48.169 177.493s17.896 126.673 49.060 179.111l-0.89-1.618c31.419 52.471 74.132 95.152 124.999 125.624l1.636 0.908c50.97 30.166 112.334 47.991 177.862 47.991 33.145 0 65.224-4.56 95.646-13.088l-2.489 0.596zM464.009 321.4c69.203 29.98 123.259 84.047 152.5 151.385l0.725 1.874c14.392 33.049 22.766 71.551 22.766 112.009s-8.373 78.959-23.482 113.867l0.716-1.858c-29.954 69.209-84.015 123.27-151.351 152.5l-1.873 0.724c-33.049 14.392-71.551 22.766-112.009 22.766s-78.959-8.373-113.867-23.482l1.858 0.716c-69.209-29.954-123.27-84.015-152.5-151.351l-0.724-1.873c-14.392-33.049-22.766-71.551-22.766-112.009s8.373-78.959 23.482-113.867l-0.716 1.858c29.966-69.211 84.021-123.278 151.351-152.534l1.873-0.725c33.053-14.372 71.554-22.734 112.009-22.734s78.956 8.361 113.871 23.45l-1.863-0.716z" />
<glyph unicode="&#xefec;" glyph-name="money_1" horiz-adv-x="1507" d="M899.098 609.291c3.528-14.347 5.552-30.819 5.552-47.763 0-114.999-93.225-208.224-208.224-208.224s-208.224 93.225-208.224 208.224c0 98.047 67.767 180.267 159.018 202.376l1.423 0.291c14.332 3.519 30.786 5.537 47.711 5.537 98.067 0 180.307-67.762 202.453-159.017l0.292-1.424zM1288.153 452.756v233.498c-101.096 7.827-172.189 66.527-184.907 148.056h-812.025c-13.045-81.529-86.094-140.229-187.19-148.056v-249.478c52.178-3.913 96.53-19.893 129.794-47.287 29.939-24.538 50.702-59.299 56.952-98.884l0.118-0.907h786.589c3.748 14.767 11.407 27.399 21.807 37.138l0.042 0.039c-14.449 13.172-23.48 32.073-23.48 53.084 0 0.026 0 0.051 0 0.077v-0.004c0.111 40.188 32.716 72.724 72.919 72.724 0.046 0 0.092 0 0.138 0h-0.007zM696.255 314.157c-136.702 0-247.521 110.819-247.521 247.521s110.819 247.521 247.521 247.521c136.702 0 247.521-110.819 247.521-247.521v0c-0.037-136.687-110.834-247.484-247.517-247.521h-0.004zM1099.985 219.258c-9.19 8.223-16.096 18.818-19.766 30.826l-0.127 0.481h-806.482c-0.132-0.003-0.288-0.005-0.444-0.005-10.264 0-18.642 8.079-19.121 18.225l-0.002 0.043c-3.587 77.615-70.115 128.163-169.906 129.794-10.665 0.183-19.241 8.872-19.241 19.564 0 0.001 0 0.002 0 0.003v0 286.655c0 0.001 0 0.002 0 0.003 0 10.692 8.575 19.381 19.224 19.564h0.017c51.2 0.652 94.247 14.675 124.576 40.112 26.447 21.555 43.596 53.646 44.997 89.778l0.007 0.229c0.536 10.377 9.080 18.589 19.542 18.589 0.009 0 0.017 0 0.026 0h846.919c0.007 0 0.016 0 0.024 0 10.462 0 19.007-8.211 19.54-18.541l0.002-0.048c3.587-77.615 69.462-128.815 167.949-130.446 10.665-0.183 19.241-8.872 19.241-19.564 0-0.001 0-0.002 0-0.003v0-251.761h65.223v485.911h-1392.183v-753.325h1079.439c3.791 13.459 10.944 24.94 20.504 33.877l0.042 0.038zM1472.408 413.622h-322.854c-18.911 0-34.242-15.331-34.242-34.242s15.331-34.242 34.242-34.242v0h322.854c18.911 0 34.242 15.331 34.242 34.242s-15.331 34.242-34.242 34.242v0zM1472.408-16.849h-322.854c-18.911 0-34.242-15.331-34.242-34.242s15.331-34.242 34.242-34.242v0h322.854c18.911 0 34.242 15.331 34.242 34.242s-15.331 34.242-34.242 34.242v0zM1472.408 306.005h-322.854c-18.911 0-34.242-15.331-34.242-34.242s15.331-34.242 34.242-34.242v0h322.854c18.911 0 34.242 15.331 34.242 34.242s-15.331 34.242-34.242 34.242v0zM1472.408 198.387h-322.854c-18.911 0-34.242-15.331-34.242-34.242s15.331-34.242 34.242-34.242v0h322.854c18.911 0 34.242 15.331 34.242 34.242s-15.331 34.242-34.242 34.242v0zM1472.408 90.769h-322.854c-18.911 0-34.242-15.331-34.242-34.242s15.331-34.242 34.242-34.242v0h322.854c18.911 0 34.242 15.331 34.242 34.242s-15.331 34.242-34.242 34.242v0z" />
<glyph unicode="&#xf002;" glyph-name="search" horiz-adv-x="951" d="M658.286 475.428q0 105.714-75.143 180.857t-180.857 75.143-180.857-75.143-75.143-180.857 75.143-180.857 180.857-75.143 180.857 75.143 75.143 180.857zM950.857 0q0-29.714-21.714-51.429t-51.429-21.714q-30.857 0-51.429 21.714l-196 195.429q-102.286-70.857-228-70.857-81.714 0-156.286 31.714t-128.571 85.714-85.714 128.571-31.714 156.286 31.714 156.286 85.714 128.571 128.571 85.714 156.286 31.714 156.286-31.714 128.571-85.714 85.714-128.571 31.714-156.286q0-125.714-70.857-228l196-196q21.143-21.143 21.143-51.429z" />
<glyph unicode="&#xf003;" glyph-name="envelope-o" d="M950.857 91.428v438.857q-18.286-20.571-39.429-37.714-153.143-117.714-243.429-193.143-29.143-24.571-47.429-38.286t-49.429-27.714-58.571-14h-1.143q-27.429 0-58.571 14t-49.429 27.714-47.429 38.286q-90.286 75.429-243.429 193.143-21.143 17.143-39.429 37.714v-438.857q0-7.429 5.429-12.857t12.857-5.429h841.143q7.429 0 12.857 5.429t5.429 12.857zM950.857 692v14t-0.286 7.429-1.714 7.143-3.143 5.143-5.143 4.286-8 1.429h-841.143q-7.429 0-12.857-5.429t-5.429-12.857q0-96 84-162.286 110.286-86.857 229.143-181.143 3.429-2.857 20-16.857t26.286-21.429 25.429-18 28.857-15.714 24.571-5.143h1.143q11.429 0 24.571 5.143t28.857 15.714 25.429 18 26.286 21.429 20 16.857q118.857 94.286 229.143 181.143 30.857 24.571 57.429 66t26.571 75.143zM1024 713.143v-621.714q0-37.714-26.857-64.571t-64.571-26.857h-841.143q-37.714 0-64.571 26.857t-26.857 64.571v621.714q0 37.714 26.857 64.571t64.571 26.857h841.143q37.714 0 64.571-26.857t26.857-64.571z" />
<glyph unicode="&#xf007;" glyph-name="user" horiz-adv-x="805" d="M804.571 148q0-68.571-41.714-108.286t-110.857-39.714h-499.429q-69.143 0-110.857 39.714t-41.714 108.286q0 30.286 2 59.143t8 62.286 15.143 62 24.571 55.714 35.429 46.286 48.857 30.571 63.714 11.429q5.143 0 24-12.286t42.571-27.429 61.714-27.429 76.286-12.286 76.286 12.286 61.714 27.429 42.571 27.429 24 12.286q34.857 0 63.714-11.429t48.857-30.571 35.429-46.286 24.571-55.714 15.143-62 8-62.286 2-59.143zM621.714 658.286q0-90.857-64.286-155.143t-155.143-64.286-155.143 64.286-64.286 155.143 64.286 155.143 155.143 64.286 155.143-64.286 64.286-155.143z" />
<glyph unicode="&#xf00c;" glyph-name="check" d="M954.857 627.428q0-22.857-16-38.857l-491.429-491.429q-16-16-38.857-16t-38.857 16l-284.571 284.571q-16 16-16 38.857t16 38.857l77.714 77.714q16 16 38.857 16t38.857-16l168-168.571 374.857 375.429q16 16 38.857 16t38.857-16l77.714-77.714q16-16 16-38.857z" />
<glyph unicode="&#xf00d;" glyph-name="close, remove, times" horiz-adv-x="805" d="M741.714 195.428q0-22.857-16-38.857l-77.714-77.714q-16-16-38.857-16t-38.857 16l-168 168-168-168q-16-16-38.857-16t-38.857 16l-77.714 77.714q-16 16-16 38.857t16 38.857l168 168-168 168q-16 16-16 38.857t16 38.857l77.714 77.714q16 16 38.857 16t38.857-16l168-168 168 168q16 16 38.857 16t38.857-16l77.714-77.714q16-16 16-38.857t-16-38.857l-168-168 168-168q16-16 16-38.857z" />
<glyph unicode="&#xf014;" glyph-name="trash-o" horiz-adv-x="805" d="M292.571 530.286v-329.143q0-8-5.143-13.143t-13.143-5.143h-36.571q-8 0-13.143 5.143t-5.143 13.143v329.143q0 8 5.143 13.143t13.143 5.143h36.571q8 0 13.143-5.143t5.143-13.143zM438.857 530.286v-329.143q0-8-5.143-13.143t-13.143-5.143h-36.571q-8 0-13.143 5.143t-5.143 13.143v329.143q0 8 5.143 13.143t13.143 5.143h36.571q8 0 13.143-5.143t5.143-13.143zM585.143 530.286v-329.143q0-8-5.143-13.143t-13.143-5.143h-36.571q-8 0-13.143 5.143t-5.143 13.143v329.143q0 8 5.143 13.143t13.143 5.143h36.571q8 0 13.143-5.143t5.143-13.143zM658.286 116.571v541.714h-512v-541.714q0-12.571 4-23.143t8.286-15.429 6-4.857h475.429q1.714 0 6 4.857t8.286 15.429 4 23.143zM274.286 731.428h256l-27.429 66.857q-4 5.143-9.714 6.286h-181.143q-5.714-1.143-9.714-6.286zM804.571 713.143v-36.571q0-8-5.143-13.143t-13.143-5.143h-54.857v-541.714q0-47.429-26.857-82t-64.571-34.571h-475.429q-37.714 0-64.571 33.429t-26.857 80.857v544h-54.857q-8 0-13.143 5.143t-5.143 13.143v36.571q0 8 5.143 13.143t13.143 5.143h176.571l40 95.429q8.571 21.143 30.857 36t45.143 14.857h182.857q22.857 0 45.143-14.857t30.857-36l40-95.429h176.571q8 0 13.143-5.143t5.143-13.143z" />
<glyph unicode="&#xf015;" glyph-name="home" horiz-adv-x="951" d="M804.571 384v-274.286q0-14.857-10.857-25.714t-25.714-10.857h-219.429v219.429h-146.286v-219.429h-219.429q-14.857 0-25.714 10.857t-10.857 25.714v274.286q0 0.571 0.286 1.714t0.286 1.714l328.571 270.857 328.571-270.857q0.571-1.143 0.571-3.429zM932 423.428l-35.429-42.286q-4.571-5.143-12-6.286h-1.714q-7.429 0-12 4l-395.429 329.714-395.429-329.714q-6.857-4.571-13.714-4-7.429 1.143-12 6.286l-35.429 42.286q-4.571 5.714-4 13.429t6.286 12.286l410.857 342.286q18.286 14.857 43.429 14.857t43.429-14.857l139.429-116.571v111.429q0 8 5.143 13.143t13.143 5.143h109.714q8 0 13.143-5.143t5.143-13.143v-233.143l125.143-104q5.714-4.571 6.286-12.286t-4-13.429z" />
<glyph unicode="&#xf016;" glyph-name="file-o" d="M838.857 733.714q16-16 27.429-43.429t11.429-50.286v-658.286q0-22.857-16-38.857t-38.857-16h-768q-22.857 0-38.857 16t-16 38.857v914.286q0 22.857 16 38.857t38.857 16h512q22.857 0 50.286-11.429t43.429-27.429zM585.143 873.143v-214.857h214.857q-5.714 16.571-12.571 23.429l-178.857 178.857q-6.857 6.857-23.429 12.571zM804.571 0v585.143h-237.714q-22.857 0-38.857 16t-16 38.857v237.714h-438.857v-877.714h731.429z" />
<glyph unicode="&#xf019;" glyph-name="download" horiz-adv-x="951" d="M731.429 182.857q0 14.857-10.857 25.714t-25.714 10.857-25.714-10.857-10.857-25.714 10.857-25.714 25.714-10.857 25.714 10.857 10.857 25.714zM877.714 182.857q0 14.857-10.857 25.714t-25.714 10.857-25.714-10.857-10.857-25.714 10.857-25.714 25.714-10.857 25.714 10.857 10.857 25.714zM950.857 310.857v-182.857q0-22.857-16-38.857t-38.857-16h-841.143q-22.857 0-38.857 16t-16 38.857v182.857q0 22.857 16 38.857t38.857 16h265.714l77.143-77.714q33.143-32 77.714-32t77.714 32l77.714 77.714h265.143q22.857 0 38.857-16t16-38.857zM765.143 636q9.714-23.429-8-40l-256-256q-10.286-10.857-25.714-10.857t-25.714 10.857l-256 256q-17.714 16.571-8 40 9.714 22.286 33.714 22.286h146.286v256q0 14.857 10.857 25.714t25.714 10.857h146.286q14.857 0 25.714-10.857t10.857-25.714v-256h146.286q24 0 33.714-22.286z" />
<glyph unicode="&#xf01a;" glyph-name="arrow-circle-o-down" d="M640 420.571q0-6.857-5.714-13.714l-182.286-182.286q-6.286-5.143-13.143-5.143t-13.143 5.143l-182.857 182.857q-8.571 9.143-4 20 4.571 11.429 17.143 11.429h109.714v201.143q0 8 5.143 13.143t13.143 5.143h109.714q8 0 13.143-5.143t5.143-13.143v-201.143h109.714q8 0 13.143-5.143t5.143-13.143zM438.857 749.714q-84.571 0-156-41.714t-113.143-113.143-41.714-156 41.714-156 113.143-113.143 156-41.714 156 41.714 113.143 113.143 41.714 156-41.714 156-113.143 113.143-156 41.714zM877.714 438.857q0-119.429-58.857-220.286t-159.714-159.714-220.286-58.857-220.286 58.857-159.714 159.714-58.857 220.286 58.857 220.286 159.714 159.714 220.286 58.857 220.286-58.857 159.714-159.714 58.857-220.286z" />
<glyph unicode="&#xf01e;" glyph-name="repeat, rotate-right" d="M877.714 804.571v-256q0-14.857-10.857-25.714t-25.714-10.857h-256q-24 0-33.714 22.857-9.714 22.286 8 39.429l78.857 78.857q-84.571 78.286-199.429 78.286-59.429 0-113.429-23.143t-93.429-62.571-62.571-93.429-23.143-113.429 23.143-113.429 62.571-93.429 93.429-62.571 113.429-23.143q68 0 128.571 29.714t102.286 84q4 5.714 13.143 6.857 8 0 14.286-5.143l78.286-78.857q5.143-4.571 5.429-11.714t-4.286-12.857q-62.286-75.429-150.857-116.857t-186.857-41.429q-89.143 0-170.286 34.857t-140 93.714-93.714 140-34.857 170.286 34.857 170.286 93.714 140 140 93.714 170.286 34.857q84 0 162.571-31.714t139.714-89.429l74.286 73.714q16.571 17.714 40 8 22.286-9.714 22.286-33.714z" />
<glyph unicode="&#xf021;" glyph-name="refresh" d="M863.429 347.428q0-2.857-0.571-4-36.571-153.143-153.143-248.286t-273.143-95.143q-83.429 0-161.429 31.429t-139.143 89.714l-73.714-73.714q-10.857-10.857-25.714-10.857t-25.714 10.857-10.857 25.714v256q0 14.857 10.857 25.714t25.714 10.857h256q14.857 0 25.714-10.857t10.857-25.714-10.857-25.714l-78.286-78.286q40.571-37.714 92-58.286t106.857-20.571q76.571 0 142.857 37.143t106.286 102.286q6.286 9.714 30.286 66.857 4.571 13.143 17.143 13.143h109.714q7.429 0 12.857-5.429t5.429-12.857zM877.714 804.571v-256q0-14.857-10.857-25.714t-25.714-10.857h-256q-14.857 0-25.714 10.857t-10.857 25.714 10.857 25.714l78.857 78.857q-84.571 78.286-199.429 78.286-76.571 0-142.857-37.143t-106.286-102.286q-6.286-9.714-30.286-66.857-4.571-13.143-17.143-13.143h-113.714q-7.429 0-12.857 5.429t-5.429 12.857v4q37.143 153.143 154.286 248.286t274.286 95.143q83.429 0 162.286-31.714t140-89.429l74.286 73.714q10.857 10.857 25.714 10.857t25.714-10.857 10.857-25.714z" />
<glyph unicode="&#xf022;" glyph-name="list-alt" d="M219.429 274.286v-36.571q0-7.429-5.429-12.857t-12.857-5.429h-36.571q-7.429 0-12.857 5.429t-5.429 12.857v36.571q0 7.429 5.429 12.857t12.857 5.429h36.571q7.429 0 12.857-5.429t5.429-12.857zM219.429 420.571v-36.571q0-7.429-5.429-12.857t-12.857-5.429h-36.571q-7.429 0-12.857 5.429t-5.429 12.857v36.571q0 7.429 5.429 12.857t12.857 5.429h36.571q7.429 0 12.857-5.429t5.429-12.857zM219.429 566.857v-36.571q0-7.429-5.429-12.857t-12.857-5.429h-36.571q-7.429 0-12.857 5.429t-5.429 12.857v36.571q0 7.429 5.429 12.857t12.857 5.429h36.571q7.429 0 12.857-5.429t5.429-12.857zM877.714 274.286v-36.571q0-7.429-5.429-12.857t-12.857-5.429h-548.571q-7.429 0-12.857 5.429t-5.429 12.857v36.571q0 7.429 5.429 12.857t12.857 5.429h548.571q7.429 0 12.857-5.429t5.429-12.857zM877.714 420.571v-36.571q0-7.429-5.429-12.857t-12.857-5.429h-548.571q-7.429 0-12.857 5.429t-5.429 12.857v36.571q0 7.429 5.429 12.857t12.857 5.429h548.571q7.429 0 12.857-5.429t5.429-12.857zM877.714 566.857v-36.571q0-7.429-5.429-12.857t-12.857-5.429h-548.571q-7.429 0-12.857 5.429t-5.429 12.857v36.571q0 7.429 5.429 12.857t12.857 5.429h548.571q7.429 0 12.857-5.429t5.429-12.857zM950.857 164.571v475.429q0 7.429-5.429 12.857t-12.857 5.429h-841.143q-7.429 0-12.857-5.429t-5.429-12.857v-475.429q0-7.429 5.429-12.857t12.857-5.429h841.143q7.429 0 12.857 5.429t5.429 12.857zM1024 786.286v-621.714q0-37.714-26.857-64.571t-64.571-26.857h-841.143q-37.714 0-64.571 26.857t-26.857 64.571v621.714q0 37.714 26.857 64.571t64.571 26.857h841.143q37.714 0 64.571-26.857t26.857-64.571z" />
<glyph unicode="&#xf02d;" glyph-name="book" horiz-adv-x="951" d="M936.571 677.714q22.857-32.571 10.286-73.714l-157.143-517.714q-10.857-36.571-43.714-61.429t-70-24.857h-527.429q-44 0-84.857 30.571t-56.857 75.143q-13.714 38.286-1.143 72.571 0 2.286 1.714 15.429t2.286 21.143q0.571 4.571-1.714 12.286t-1.714 11.143q1.143 6.286 4.571 12t9.429 13.429 9.429 13.429q13.143 21.714 25.714 52.286t17.143 52.286q1.714 5.714 0.286 17.143t-0.286 16q1.714 6.286 9.714 16t9.714 13.143q12 20.571 24 52.571t14.286 51.429q0.571 5.143-1.429 18.286t0.286 16q2.286 7.429 12.571 17.429t12.571 12.857q10.857 14.857 24.286 48.286t15.714 55.143q0.571 4.571-1.714 14.571t-1.143 15.143q1.143 4.571 5.143 10.286t10.286 13.143 9.714 12q4.571 6.857 9.429 17.429t8.571 20 9.143 20.571 11.143 18.286 15.143 13.429 20.571 6.571 27.143-3.143l-0.571-1.714q21.714 5.143 29.143 5.143h434.857q42.286 0 65.143-32t10.286-74.286l-156.571-517.714q-20.571-68-40.857-87.714t-73.429-19.714h-496.571q-15.429 0-21.714-8.571-6.286-9.143-0.571-24.571 13.714-40 82.286-40h527.429q16.571 0 32 8.857t20 23.714l171.429 564q4 12.571 2.857 32.571 21.714-8.571 33.714-24.571zM328.571 676.571q-2.286-7.429 1.143-12.857t11.429-5.429h347.429q7.429 0 14.571 5.429t9.429 12.857l12 36.571q2.286 7.429-1.143 12.857t-11.429 5.429h-347.429q-7.429 0-14.571-5.429t-9.429-12.857zM281.143 530.286q-2.286-7.429 1.143-12.857t11.429-5.429h347.429q7.429 0 14.571 5.429t9.429 12.857l12 36.571q2.286 7.429-1.143 12.857t-11.429 5.429h-347.429q-7.429 0-14.571-5.429t-9.429-12.857z" />
<glyph unicode="&#xf02f;" glyph-name="print" horiz-adv-x="951" d="M219.429 73.143h512v146.286h-512v-146.286zM219.429 438.857h512v219.429h-91.429q-22.857 0-38.857 16t-16 38.857v91.429h-365.714v-365.714zM877.714 402.286q0 14.857-10.857 25.714t-25.714 10.857-25.714-10.857-10.857-25.714 10.857-25.714 25.714-10.857 25.714 10.857 10.857 25.714zM950.857 402.286v-237.714q0-7.429-5.429-12.857t-12.857-5.429h-128v-91.429q0-22.857-16-38.857t-38.857-16h-548.571q-22.857 0-38.857 16t-16 38.857v91.429h-128q-7.429 0-12.857 5.429t-5.429 12.857v237.714q0 45.143 32.286 77.429t77.429 32.286h36.571v310.857q0 22.857 16 38.857t38.857 16h384q22.857 0 50.286-11.429t43.429-27.429l86.857-86.857q16-16 27.429-43.429t11.429-50.286v-146.286h36.571q45.143 0 77.429-32.286t32.286-77.429z" />
<glyph unicode="&#xf03e;" glyph-name="image, photo, picture-o" horiz-adv-x="1097" d="M365.714 621.714q0-45.714-32-77.714t-77.714-32-77.714 32-32 77.714 32 77.714 77.714 32 77.714-32 32-77.714zM950.857 402.286v-256h-804.571v109.714l182.857 182.857 91.429-91.429 292.571 292.571zM1005.714 804.571h-914.286q-7.429 0-12.857-5.429t-5.429-12.857v-694.857q0-7.429 5.429-12.857t12.857-5.429h914.286q7.429 0 12.857 5.429t5.429 12.857v694.857q0 7.429-5.429 12.857t-12.857 5.429zM1097.143 786.286v-694.857q0-37.714-26.857-64.571t-64.571-26.857h-914.286q-37.714 0-64.571 26.857t-26.857 64.571v694.857q0 37.714 26.857 64.571t64.571 26.857h914.286q37.714 0 64.571-26.857t26.857-64.571z" />
<glyph unicode="&#xf044;" glyph-name="edit, pencil-square-o" d="M507.429 274.286l66.286 66.286-86.857 86.857-66.286-66.286v-32h54.857v-54.857h32zM758.857 685.714q-9.143 9.143-18.857-0.571l-200-200q-9.714-9.714-0.571-18.857t18.857 0.571l200 200q9.714 9.714 0.571 18.857zM804.571 346.286v-108.571q0-68-48.286-116.286t-116.286-48.286h-475.429q-68 0-116.286 48.286t-48.286 116.286v475.429q0 68 48.286 116.286t116.286 48.286h475.429q36 0 66.857-14.286 8.571-4 10.286-13.143 1.714-9.714-5.143-16.571l-28-28q-8-8-18.286-4.571-13.143 3.429-25.714 3.429h-475.429q-37.714 0-64.571-26.857t-26.857-64.571v-475.429q0-37.714 26.857-64.571t64.571-26.857h475.429q37.714 0 64.571 26.857t26.857 64.571v72q0 7.429 5.143 12.571l36.571 36.571q8.571 8.571 20 4t11.429-16.571zM749.714 768l164.571-164.571-384-384h-164.571v164.571zM1003.429 692.571l-52.571-52.571-164.571 164.571 52.571 52.571q16 16 38.857 16t38.857-16l86.857-86.857q16-16 16-38.857t-16-38.857z" />
<glyph unicode="&#xf046;" glyph-name="check-square-o" horiz-adv-x="951" d="M804.571 419.428v-181.714q0-68-48.286-116.286t-116.286-48.286h-475.429q-68 0-116.286 48.286t-48.286 116.286v475.429q0 68 48.286 116.286t116.286 48.286h475.429q36 0 66.857-14.286 8.571-4 10.286-13.143 1.714-9.714-5.143-16.571l-28-28q-5.714-5.714-13.143-5.714-1.714 0-5.143 1.143-13.143 3.429-25.714 3.429h-475.429q-37.714 0-64.571-26.857t-26.857-64.571v-475.429q0-37.714 26.857-64.571t64.571-26.857h475.429q37.714 0 64.571 26.857t26.857 64.571v145.143q0 7.429 5.143 12.571l36.571 36.571q5.714 5.714 13.143 5.714 3.429 0 6.857-1.714 11.429-4.571 11.429-16.571zM936.571 698.857l-465.143-465.143q-13.714-13.714-32.571-13.714t-32.571 13.714l-245.714 245.714q-13.714 13.714-13.714 32.571t13.714 32.571l62.857 62.857q13.714 13.714 32.571 13.714t32.571-13.714l150.286-150.286 369.714 369.714q13.714 13.714 32.571 13.714t32.571-13.714l62.857-62.857q13.714-13.714 13.714-32.571t-13.714-32.571z" />
</font>
</defs>
</svg>
